<?xml version="1.0" encoding="UTF-8"?><svg id="Layer_1" xmlns="http://www.w3.org/2000/svg" viewBox="0 0 100 100"><path d="M45.007,21.389l-8.868,8.868,4.221,4.221,8.868-8.868-4.22-4.22ZM45.007,21.389l-8.868,8.868,4.221,4.221,8.868-8.868-4.22-4.22ZM45.007,21.389l-8.868,8.868,4.221,4.221,8.868-8.868-4.22-4.22ZM45.007,21.389l-8.868,8.868,4.221,4.221,8.868-8.868-4.22-4.22ZM45.007,21.389l-8.868,8.868,4.221,4.221,8.868-8.868-4.22-4.22ZM96.332,42.666c-3.925-3.705-10.337-3.497-14.284.46l-1.765,1.765,4.341,4.341,2.006-2.017c1.535-1.535,4.034-1.535,5.58,0,.745.745,1.151,1.732,1.151,2.784s-.406,2.05-1.151,2.795c-.767.767-1.776,1.151-2.795,1.151-1.009,0-2.017-.384-2.784-1.151l-2.401-2.401-5.108-5.119-9.384-9.121-4.21,4.21,9.263,9.263,5.097,5.108,2.401,2.39c1.907,1.907,4.429,2.949,7.125,2.949s5.229-1.041,7.136-2.949c1.896-1.896,2.949-4.429,2.949-7.125,0-2.795-1.129-5.404-3.168-7.334ZM45.007,21.389l-8.868,8.868,4.221,4.221,8.868-8.868-4.22-4.22ZM45.007,21.389l-8.868,8.868,4.221,4.221,8.868-8.868-4.22-4.22ZM45.007,21.389l-8.868,8.868,4.221,4.221,8.868-8.868-4.22-4.22ZM45.007,21.389l-8.868,8.868,4.221,4.221,8.868-8.868-4.22-4.22ZM45.007,21.389l-8.868,8.868,4.221,4.221,8.868-8.868-4.22-4.22ZM49.611,45.275l-9.636-9.636-4.988-4.988c-1.392-1.392-2.16-3.245-2.16-5.207,0-1.973.767-3.815,2.16-5.207,1.381-1.392,3.234-2.16,5.196-2.16,1.973,0,3.826.767,5.207,2.16l4.977,4.977q.011,0,.022.011c.022.022.044.055.066.077l9.175,9.175,4.341-4.341-14.24-14.24c-2.543-2.554-5.931-3.957-9.548-3.957s-6.994,1.403-9.537,3.957c-2.554,2.543-3.957,5.942-3.957,9.548s1.403,6.994,3.957,9.537v.011l4.988,4.988.066.077,9.57,9.559,14.371,14.361,4.341-4.33-14.371-14.371ZM30.252,36.144l-9.373,9.132-7.52,7.52c-.767.767-1.776,1.151-2.784,1.151s-2.017-.384-2.784-1.151c-1.535-1.546-1.535-4.045,0-5.58,1.491-1.491,4.089-1.48,5.569,0l2.017,2.017,4.341-4.341-2.017-2.017c-3.924-3.924-10.315-3.924-14.251,0-1.907,1.897-2.949,4.429-2.949,7.125s1.041,5.229,2.949,7.125c1.897,1.907,4.429,2.949,7.125,2.949s5.229-1.041,7.125-2.949l2.401-2.39,5.119-5.119,9.252-9.252-4.221-4.221ZM25.604,50.778l-4.33,4.33,8.89,8.836,4.341-4.341-8.901-8.825ZM69.847,65.544l-4.352,4.352c2.39,2.905,2.192,7.202-.482,9.877-1.436,1.436-3.322,2.149-5.207,2.149s-3.771-.713-5.207-2.149l-4.966-4.977-.044-.033-9.23-9.23-4.341,4.341,14.24,14.24c2.543,2.543,5.942,3.946,9.548,3.946s7.005-1.403,9.548-3.946c5.108-5.119,5.317-13.231.493-18.57ZM40.194,81.933c-1.896,0-3.771-.723-5.207-2.16-2.828-2.828-2.872-7.389-.121-10.272.033-.055.077-.099.121-.143l4.988-4.988,9.252-9.252-4.341-4.341-9.033,9.033-.34.329s0,.011-.011.011l-4.769,4.78-.088.088c-.077.077-.153.153-.23.241-5.043,5.273-4.966,13.67.23,18.855,2.543,2.543,5.931,3.946,9.537,3.946,1.688,0,3.333-.307,4.867-.899,1.524-.581,2.927-1.447,4.155-2.554l-4.352-4.352c-1.359,1.118-3.015,1.677-4.659,1.677ZM69.354,15.896c-2.554-2.554-5.942-3.957-9.548-3.957-3.354,0-6.544,1.228-9.011,3.464l4.352,4.352c1.305-1.096,2.96-1.677,4.659-1.677,1.962,0,3.815.767,5.207,2.16,1.392,1.392,2.16,3.234,2.16,5.207,0,1.962-.767,3.815-2.16,5.207l-14.24,14.24,4.341,4.341,9.252-9.252,4.977-4.988.011-.011c2.554-2.543,3.957-5.931,3.957-9.537s-1.403-7.005-3.957-9.548ZM45.007,21.389l-8.868,8.868,4.221,4.221,8.868-8.868-4.22-4.22ZM45.007,21.389l-8.868,8.868,4.221,4.221,8.868-8.868-4.22-4.22ZM45.007,21.389l-8.868,8.868,4.221,4.221,8.868-8.868-4.22-4.22ZM74.397,50.778l-23.613,23.624,4.33,4.33,23.624-23.613-4.341-4.341ZM45.007,21.389l-8.868,8.868,4.221,4.221,8.868-8.868-4.22-4.22ZM45.007,21.389l-8.868,8.868,4.221,4.221,8.868-8.868-4.22-4.22ZM45.007,21.389l-8.868,8.868,4.221,4.221,8.868-8.868-4.22-4.22ZM45.007,21.389l-8.868,8.868,4.221,4.221,8.868-8.868-4.22-4.22ZM45.007,21.389l-8.868,8.868,4.221,4.221,8.868-8.868-4.22-4.22ZM45.007,21.389l-8.868,8.868,4.221,4.221,8.868-8.868-4.22-4.22Z" style="fill:#672827;"/></svg>