<?xml version="1.0" encoding="UTF-8"?><svg id="Layer_1" xmlns="http://www.w3.org/2000/svg" viewBox="0 0 176.7 81"><path d="M56.7,71.4c-.1.2-.3.3-.6.4-.3,0-.6,0-1,0-.9.6-2,1.3-3.2,1.9s-2.6,1.2-4.1,1.7c-1.4.5-2.9.9-4.4,1.3v-.4c1.2-.5,2.4-1.2,3.7-2s2.5-1.6,3.6-2.4c1.1-.9,2-1.6,2.6-2.4l3.4,1.9ZM71.2,66.4c.4.5.8,1,1.1,1.4.3.4.5.7.8,1-.1.3-.4.5-.9.5h-27.5v-.9c0,0,24.8,0,24.8,0l1.7-2ZM54.2,52c0,.1-.2.2-.4.3-.2.1-.4.2-.8.2l-2.5,16.3h-2.6l2.8-18,3.5,1.2ZM54,61.2c.4.4.7.8,1,1.1.3.3.5.6.7.9-.1.3-.4.5-.8.5h-5l.2-.9h2.5l1.4-1.6ZM54.9,55.6c.4.4.7.8.9,1.1.2.3.5.6.6.9-.1.3-.4.5-.8.5h-4.7l.2-.9h2.4l1.4-1.5ZM58.7,51.5c-.2.2-.5.2-.9,0-.4.2-.9.3-1.5.6-.6.2-1.3.4-2,.6-.7.2-1.4.4-2,.5l-.2-.3c.5-.3,1.1-.8,1.7-1.2.6-.5,1.1-1,1.7-1.4s1-.8,1.3-1.1l2,2.4ZM60,60.7c0,.2-.2.3-.3.4-.1.1-.3.2-.6.3l-1.4,7.4h-2.2l1.6-8.4,3,.3ZM60.8,50.2l.6.4-1.6,8.1h.2l-1,1-2.4-1.3c.2-.2.5-.3.8-.6.3-.2.6-.4.8-.4l-.8,1,1.5-8.1h1.9ZM63.2,57.8l-.2.9h-4.6l.2-.9h4.5ZM62.8,49.2c0,.2-.2.4-.4.5-.2.1-.5.2-.9.3l-.2,1.1h-2.5l.3-1.8v-.5c0,0,3.6.4,3.6.4ZM64.7,51.5c.5.4.8.8,1.2,1.1.3.3.6.6.8.9-.1.3-.4.5-.8.5h-6.5l.2-.9h3.6l1.6-1.7ZM61.8,57.8l1.4-1.2,2,1.9c-.1,0-.2.2-.4.3-.2,0-.4.1-.6.2l-1.9,9.9h-2.4l2.1-10.9h-.2ZM60.7,70.3c2.2.2,4,.6,5.3,1,1.4.4,2.4.8,3.1,1.3s1.2.9,1.4,1.4.3.9.1,1.3c-.1.4-.4.7-.7.9-.3.2-.7.3-1.1.3-.4,0-.8-.2-1.1-.5-.3-.6-.8-1.1-1.5-1.7-.7-.6-1.5-1.2-2.4-1.8-1-.6-2.1-1.1-3.4-1.6l.2-.4ZM68.9,62.7v.9h-4.6v-.9c-.1,0,4.6,0,4.6,0ZM70,57v.9h-4.6v-.9c-.1,0,4.6,0,4.6,0ZM71.5,51.7l-.2.9h-5v-.9c0,0,5.2,0,5.2,0ZM70.1,51.7l1.6-1.6,2.3,2.3c-.1.1-.3.2-.4.3-.2,0-.4.1-.7.2l-3.6,15.8h-2.7l4-17.1h-.3Z" style="fill:#fff;"/><path d="M19.2,3.5c0,2.1-.1,4.1-.2,6.2-.1,2.1-.3,4.2-.7,6.2-.3,2.1-.9,4.1-1.6,6s-1.8,3.9-3.1,5.7c-1.3,1.9-3,3.6-5.1,5.3-2.1,1.7-4.7,3.2-7.7,4.6l-.4-.5c2.8-2.1,5-4.2,6.7-6.5,1.7-2.2,3-4.5,4-6.9s1.6-4.7,2-7.2.6-4.9.7-7.3c0-2.5,0-4.9,0-7.4l6.9.7c0,.3-.1.5-.3.7-.2.2-.6.3-1.1.4ZM19.2,3.5c.2,3.7.6,7.1,1.3,10.1.6,3,1.6,5.6,2.9,7.9s3.1,4.3,5.2,6c2.2,1.7,4.9,3.1,8.2,4.2v.5c-1.3.3-2.4.8-3.2,1.7-.8.9-1.3,2-1.6,3.4-2.8-1.5-5.1-3.3-6.8-5.5-1.7-2.2-3.1-4.7-4-7.5s-1.6-6-1.9-9.4c-.4-3.5-.6-7.2-.7-11.3h.6Z" style="fill:#fff;"/><path d="M36.7,22c.9-.2,2.2-.5,3.9-.8s3.6-.8,5.7-1.4c2.1-.5,4.3-1.1,6.5-1.6v.4c-1.3.9-3,2.1-5.1,3.4-2.1,1.3-4.8,2.9-7.8,4.5-.1.2-.2.4-.4.6-.2.2-.4.3-.6.4l-2-5.6ZM38.2,4l5.7,1.1c0,.2-.2.4-.4.6-.2.2-.5.3-1,.3-.5,2.4-1.2,4.6-2,6.8s-1.9,3.9-3.1,5.4l-.6-.3c.3-1.3.6-2.7.8-4.3.2-1.5.3-3.1.5-4.8.1-1.6.2-3.3.2-4.9ZM40,10.7h7.9l2-3.3c.8.8,1.5,1.6,2.1,2.2.6.6,1,1.1,1.4,1.6,0,.4-.4.6-1,.6h-12.5v-1.1ZM43.2,1.2l6.1.6c0,.3-.1.5-.3.7s-.6.3-1.1.4v33.4c0,.1-.2.3-.6.5-.4.2-.8.4-1.4.6s-1.1.3-1.7.3h-1V1.2ZM54.5,1.2l6.4,1.9c-.1.3-.3.5-.5.6-.2.1-.6.2-1.1.2-1.1,3.1-2.5,5.8-4.2,8-1.7,2.2-3.7,4-6,5.4l-.4-.3c1.3-1.9,2.5-4.2,3.6-7,1-2.8,1.8-5.7,2.2-8.8ZM57.4,8.7h4.7c-.6,2.4-1.5,4.8-2.6,7-1.2,2.3-2.6,4.4-4.3,6.3-1.7,1.9-3.6,3.6-5.8,5.1l-.3-.4c1.5-1.6,2.8-3.4,4-5.4,1.2-2,2.1-4.1,2.9-6.2.7-2.2,1.2-4.3,1.5-6.3ZM62.4,8.7h5.2c-.6,3.6-1.5,7-2.9,10.3-1.4,3.3-3.2,6.3-5.6,9s-5.3,5.1-9,7l-.3-.3c2.7-2.2,4.9-4.8,6.7-7.6s3.1-5.8,4.1-8.9c1-3.1,1.6-6.3,1.8-9.5ZM54.8,8.7h14.3v1.1h-14.8l.5-1.1ZM67.2,8.7h-.5l2.6-2.7,4.4,3.9c-.2.2-.4.3-.7.5-.3.1-.7.2-1.1.3-.1,3.8-.3,7-.5,9.8s-.4,5.2-.7,7.1-.7,3.6-1.1,4.8c-.4,1.2-1,2.1-1.5,2.7-.8.7-1.6,1.3-2.6,1.6-1,.3-2.1.5-3.5.5,0-.8,0-1.5-.2-2.1-.1-.6-.4-1.1-.7-1.4-.4-.4-.9-.7-1.7-1.1-.7-.3-1.6-.6-2.6-.8v-.5c.7,0,1.4.1,2.2.2s1.5.1,2.1.1c.7,0,1.2,0,1.5,0s.7,0,.9-.1c.2,0,.4-.2.7-.4.4-.4.7-1.1,1.1-2.3.3-1.2.6-2.7.8-4.6.2-1.9.4-4.1.6-6.8.2-2.6.3-5.6.4-8.9Z" style="fill:#fff;"/><path d="M79.9,52.3h12.5l2.5-3.3c.6.5,1.2.9,1.6,1.3.5.4.9.8,1.4,1.2.5.4,1,.8,1.4,1.2-.1.4-.5.6-1.1.6h-18l-.3-1.1ZM82,61.5v-2l5.1,2h-.5v14.4c0,.2-.3.4-1,.8-.7.4-1.6.5-2.8.5h-.8v-15.7ZM83.9,61.5h10.4v1.1h-10.4v-1.1ZM83.9,72.1h10.4v1.1h-10.4v-1.1ZM86.7,43.6l6.3.5c0,.3-.1.5-.3.7-.2.2-.5.3-1.1.4v16.9h-4.9v-18.5ZM91.9,61.5h-.4l2.2-2.3,4.4,3.4c-.1.1-.3.3-.5.4-.2.1-.5.3-.9.3v11.4c0,.1-.2.3-.7.5-.4.2-1,.4-1.6.6-.6.2-1.2.3-1.8.3h-.8v-14.5ZM108.1,52.3h5.6c-.3,3-.9,5.9-1.8,8.7-.9,2.8-2.1,5.4-3.7,7.7-1.6,2.4-3.6,4.5-6,6.3-2.4,1.9-5.5,3.4-9,4.7l-.3-.4c3.6-2.1,6.4-4.6,8.6-7.5s3.7-5.9,4.7-9.2,1.6-6.8,1.9-10.4ZM101,43.4l7,1.7c0,.3-.2.5-.5.6-.3.2-.6.2-1,.3-1.1,3.4-2.5,6.3-4.1,8.8-1.6,2.5-3.6,4.5-5.8,6.2l-.5-.3c.8-1.4,1.5-3.1,2.2-5,.7-1.9,1.2-3.8,1.7-6,.5-2.1.9-4.2,1.1-6.3ZM101,52.8c.5,2.7,1.1,5.2,2,7.4.9,2.3,2,4.4,3.3,6.2,1.3,1.9,2.9,3.5,4.7,5,1.8,1.5,3.8,2.7,6.1,3.7v.4c-1.3.3-2.3.7-3,1.4-.7.7-1.2,1.6-1.6,2.8-2.6-1.8-4.7-4-6.2-6.6-1.6-2.6-2.8-5.5-3.7-8.8s-1.5-6.8-2-10.6l.4-.8ZM100.8,52.3h9.1l2.5-3.4c.6.5,1.2,1,1.7,1.3.5.4,1,.8,1.5,1.3.5.5,1,.9,1.4,1.3-.1.4-.5.6-1.1.6h-15.1v-1.1Z" style="fill:#fff;"/><path d="M116.9,66h30.9l2.2-3c.9.8,1.7,1.5,2.3,2,.6.5,1.1,1,1.6,1.5,0,.2-.1.4-.3.5s-.4.2-.7.2h-35.6l-.3-1.1ZM117,47.8h28l2.7-3.3c.7.5,1.3.9,1.8,1.3s1.1.8,1.6,1.2c.6.4,1.1.9,1.6,1.3-.1.4-.5.6-1.1.6h-34.4l-.3-1.1ZM120.7,70.6h23.8v1.1h-23.4l-.3-1.1ZM121,61.4h23.4v1.1h-23.1l-.3-1.1ZM121.7,51.8v-2l5.4,2h17.9v1.1h-18.2v5.8c0,.2-.2.3-.7.6s-1,.4-1.7.6c-.7.2-1.4.3-2,.3h-.7v-8.4ZM125.1,56.8h19.5v1.1h-19.5v-1.1ZM132.2,43.3l6.6.6c0,.3-.2.5-.4.7-.2.2-.6.3-1,.4v29.2c0,1.1-.2,2-.5,2.8s-.9,1.4-1.9,1.8c-.9.4-2.4.7-4.3.9,0-.7-.2-1.4-.3-1.9-.2-.5-.4-1-.8-1.3-.4-.3-.8-.6-1.4-.9-.6-.3-1.4-.5-2.6-.7v-.5c1,0,1.8.1,2.5.2.7,0,1.3,0,2,.1.6,0,1,0,1.3,0,.3,0,.6,0,.7-.2.1-.1.2-.3.2-.6v-30.8ZM142.9,61.4h-.4l2.2-2.4,4.5,3.4c-.1.1-.3.3-.5.4-.2.1-.5.3-.9.3v9.5c0,.1-.2.3-.7.5-.4.2-1,.4-1.6.6-.6.2-1.2.3-1.8.3h-.8v-12.7ZM143.1,51.8h-.4l2.2-2.4,4.7,3.4c-.1.1-.3.3-.5.4s-.5.2-.9.3v4.3c0,.1-.2.3-.7.5-.5.2-1.1.4-1.7.6s-1.2.2-1.8.2h-.9v-7.4Z" style="fill:#fff;"/><path d="M80.7,14.3c.3,0,.5,0,.6-.1.2,0,.3-.2.3-.5,0-.2,0-.5,0-.9v-6c0-.2,0-.5,0-.7,0-.2,0-.4,0-.5-.2,0-.4,0-.6,0s-.4,0-.5,0v-1c.6,0,1.3,0,2,0s1.3,0,2,0c.9,0,1.7.1,2.4.3s1.2.6,1.5,1.1c.4.5.5,1.1.5,1.8s0,.8-.2,1.2c-.2.4-.4.8-.8,1.1-.4.3-.8.6-1.4.8s-1.3.3-2.1.3h-.5c-.2,0-.3,0-.4,0v1.6c0,.3,0,.5,0,.8,0,.2,0,.4,0,.5.1,0,.3,0,.4,0,.2,0,.3,0,.5,0,.2,0,.3,0,.4,0v1h-4.2v-.8ZM83.7,10.3c.1,0,.3,0,.4,0,.1,0,.2,0,.4,0,.6,0,1,0,1.4-.3s.7-.5.9-.9c.2-.4.3-.8.3-1.4s0-.9-.2-1.2c-.1-.3-.3-.5-.6-.7-.2-.2-.5-.3-.8-.3s-.6,0-.8,0-.5,0-.6.1c-.1,0-.2.2-.3.4,0,.2,0,.5,0,.8v3.5Z" style="fill:#fff;"/><path d="M95.5,11.4c0-.4,0-.7-.2-.9-.1-.2-.3-.3-.5-.3-.2,0-.5,0-.8,0h-.6v2.8c0,.3,0,.5,0,.7s0,.4,0,.5h2.3c.3,0,.7,0,1-.2.3-.1.5-.4.7-.7s.3-.8.3-1.3h.8v3.2h-7.9v-.8c.3,0,.5,0,.6-.1.2,0,.3-.2.3-.5,0-.2,0-.5,0-.9v-6c0-.2,0-.5,0-.7,0-.2,0-.4,0-.5-.2,0-.4,0-.6,0s-.4,0-.5,0v-1h7.4v2.8c0,0-.7,0-.7,0,0-.6,0-1-.3-1.3-.2-.3-.4-.5-.7-.6-.3,0-.6-.1-.9-.1h-.8c-.3,0-.5,0-.6.1-.1,0-.3.2-.3.4s0,.5,0,.9v2.3h2.1s0-1.3,0-1.3h1v3.5h-.8Z" style="fill:#fff;"/><path d="M105,15.3c-1,0-1.8-.2-2.4-.5-.7-.3-1.2-.7-1.6-1.3s-.7-1.1-.9-1.8c-.2-.7-.3-1.3-.3-2s.1-1.3.3-1.9c.2-.6.5-1.2,1-1.8.4-.5,1-1,1.6-1.3s1.4-.5,2.3-.5,1.7.2,2.4.5,1.2.8,1.6,1.3c.4.5.7,1.1.9,1.8.2.6.3,1.3.3,1.9s-.1,1.2-.3,1.9c-.2.6-.5,1.2-1,1.8-.4.5-1,1-1.6,1.3s-1.4.5-2.3.5ZM105.2,14.4c.6,0,1-.1,1.4-.4.4-.3.7-.6.9-1,.2-.4.4-.9.5-1.4.1-.5.2-1,.2-1.5s0-1.3-.2-1.9c-.1-.6-.3-1.1-.6-1.5-.3-.4-.6-.8-1-1s-.9-.4-1.5-.4c-.5,0-1,.1-1.4.4s-.7.6-.9,1c-.2.4-.4.9-.5,1.4-.1.5-.2,1-.2,1.5s0,1,.2,1.6.3,1.1.6,1.6c.3.5.6.9,1,1.2.4.3.9.4,1.5.4Z" style="fill:#fff;"/><path d="M111.8,14.3c.3,0,.5,0,.6-.1.2,0,.3-.2.3-.5,0-.2,0-.5,0-.9v-6c0-.2,0-.5,0-.7,0-.2,0-.4,0-.5-.2,0-.4,0-.6,0s-.4,0-.5,0v-1c.6,0,1.3,0,2,0s1.3,0,2,0c.9,0,1.7.1,2.4.3s1.2.6,1.5,1.1c.4.5.5,1.1.5,1.8s0,.8-.2,1.2c-.2.4-.4.8-.8,1.1-.4.3-.8.6-1.4.8s-1.3.3-2.1.3h-.5c-.2,0-.3,0-.4,0v1.6c0,.3,0,.5,0,.8,0,.2,0,.4,0,.5.1,0,.3,0,.4,0,.2,0,.3,0,.5,0,.2,0,.3,0,.4,0v1h-4.2v-.8ZM114.7,10.3c.1,0,.3,0,.4,0,.1,0,.2,0,.4,0,.6,0,1,0,1.4-.3s.7-.5.9-.9c.2-.4.3-.8.3-1.4s0-.9-.2-1.2c-.1-.3-.3-.5-.6-.7-.2-.2-.5-.3-.8-.3s-.6,0-.8,0-.5,0-.6.1c-.1,0-.2.2-.3.4,0,.2,0,.5,0,.8v3.5Z" style="fill:#fff;"/><path d="M121.4,15.1v-.8c.3,0,.5,0,.6-.1.2,0,.3-.2.3-.5,0-.2,0-.5,0-.9v-6c0-.2,0-.5,0-.7,0-.2,0-.4,0-.5-.2,0-.4,0-.6,0s-.4,0-.5,0v-1h4v.8c-.3,0-.5,0-.6.1-.2,0-.3.2-.3.4,0,.2,0,.5,0,.9v6c0,.3,0,.5,0,.7s0,.4,0,.5h2.3c.6,0,1.1-.2,1.4-.6.3-.4.5-1,.5-1.9h.8v3.4h-7.9Z" style="fill:#fff;"/><path d="M135.8,11.4c0-.4,0-.7-.2-.9-.1-.2-.3-.3-.5-.3-.2,0-.5,0-.8,0h-.6v2.8c0,.3,0,.5,0,.7s0,.4,0,.5h2.3c.3,0,.7,0,1-.2.3-.1.5-.4.7-.7s.3-.8.3-1.3h.8v3.2h-7.9v-.8c.3,0,.5,0,.6-.1.2,0,.3-.2.3-.5,0-.2,0-.5,0-.9v-6c0-.2,0-.5,0-.7,0-.2,0-.4,0-.5-.2,0-.4,0-.6,0s-.4,0-.5,0v-1h7.4v2.8c0,0-.7,0-.7,0,0-.6,0-1-.3-1.3-.2-.3-.4-.5-.7-.6-.3,0-.6-.1-.9-.1h-.8c-.3,0-.5,0-.6.1-.1,0-.3.2-.3.4s0,.5,0,.9v2.3h2.1s0-1.3,0-1.3h1v3.5h-.8Z" style="fill:#fff;"/><path d="M143.8,15.1v-.9c.3,0,.5,0,.7-.2.2-.2.3-.4.4-.6.1-.3.2-.6.3-.9l3-8.1h.8l3.3,8.3c0,.2.1.4.2.7,0,.3.2.6.2.8.2,0,.3,0,.5,0,.2,0,.3,0,.4,0v1h-3.8v-.8c.3,0,.5,0,.6-.2s.2-.3.1-.5,0-.4-.2-.6l-.4-1h-3.5c0,0-.3,1.1-.3,1.1,0,.2-.1.4-.2.6,0,.2-.2.4-.2.6.2,0,.4,0,.6,0s.4,0,.5,0v1h-3.1ZM146.8,11h2.8l-.8-2.2c-.1-.3-.2-.7-.3-1-.1-.3-.2-.7-.3-1h0c0,.2-.1.5-.2.8,0,.3-.2.7-.4,1.1l-.8,2.3Z" style="fill:#fff;"/><path d="M162.7,15.3l-5.2-6.8c-.1-.2-.2-.3-.4-.5s-.2-.3-.4-.5h0v5.2c0,.3,0,.5,0,.8,0,.2,0,.5,0,.6.2,0,.4,0,.6,0s.4,0,.5,0v1h-3.2v-.8c.3,0,.5,0,.6-.1.1,0,.3-.2.3-.4,0-.2.1-.4.1-.7v-6.2c0-.2,0-.5,0-.7s0-.4,0-.5c-.2,0-.4,0-.6,0s-.4,0-.5,0v-1h2.2l4.9,6.4c.2.3.4.5.5.7s.3.4.4.6h0v-5.5c0-.2,0-.5,0-.7,0-.2,0-.4,0-.5-.2,0-.3,0-.6,0-.2,0-.4,0-.5,0v-1h3.2v.8c-.3,0-.5,0-.6.1-.2,0-.3.2-.3.4,0,.2,0,.5,0,.9v8.4h-1.1Z" style="fill:#fff;"/><path d="M166.5,14.3c.3,0,.5,0,.6-.1.2,0,.3-.2.3-.5,0-.2,0-.5,0-.9v-6c0-.2,0-.5,0-.7,0-.2,0-.4,0-.5-.2,0-.4,0-.6,0s-.4,0-.5,0v-1h4.1c1,0,1.8.1,2.5.4.7.3,1.3.6,1.8,1.1.5.5.9,1,1.1,1.7s.4,1.3.4,2-.1,1.3-.3,1.9c-.2.6-.6,1.2-1,1.7-.5.5-1.1.9-1.8,1.2s-1.6.5-2.6.5h-4.2v-.8ZM169.4,12.8c0,.3,0,.5,0,.8,0,.2,0,.4,0,.5.2,0,.3,0,.5,0,.2,0,.4,0,.6,0,.2,0,.3,0,.4,0,.6,0,1.1-.1,1.5-.3.4-.2.8-.5,1.1-.9.3-.4.5-.8.7-1.3.1-.5.2-1,.2-1.6,0-1-.2-1.8-.5-2.5-.3-.7-.7-1.2-1.3-1.5-.6-.3-1.3-.5-2.1-.5-.3,0-.5,0-.7.1s-.3.2-.3.5c0,.2,0,.5,0,.9v6Z" style="fill:#fff;"/><path d="M86.7,25.9c0-.5-.2-1-.4-1.4-.2-.4-.5-.7-.9-.9-.4-.2-.8-.3-1.3-.3s-.9.1-1.2.4c-.3.3-.5.6-.5,1s0,.6.3.9c.2.2.5.5.8.7s.8.4,1.3.6c.4.2.8.3,1.2.5.4.2.8.4,1.1.7.3.3.6.6.8.9.2.4.3.8.3,1.3s-.2,1.1-.5,1.5c-.3.4-.7.8-1.3,1-.6.2-1.2.4-2,.4s-.9,0-1.3-.2c-.5-.1-.9-.3-1.3-.6v.6s-1,0-1,0v-3.4s.8,0,.8,0c.1.8.4,1.5.9,1.9.5.4,1.1.7,1.9.7s.7,0,1-.2.5-.3.7-.6c.2-.2.2-.5.2-.8s-.1-.7-.4-1-.5-.5-.9-.6c-.4-.2-.8-.4-1.2-.5-.5-.2-.9-.4-1.3-.6-.4-.2-.8-.5-1.1-.7-.3-.3-.5-.6-.7-1-.2-.4-.3-.8-.3-1.3s0-.6.2-.9c.1-.3.3-.6.5-.9.3-.3.6-.5,1-.7.4-.2,1-.3,1.6-.3s.8,0,1.3.2c.5.1.9.3,1.3.6v-.6c0,0,1,0,1,0v3.4h-.8Z" style="fill:#fff;"/><path d="M97.6,25.9c0-.6,0-1-.2-1.4-.1-.4-.3-.6-.6-.8-.3-.2-.6-.3-1-.3h-.9v7.4c0,.3,0,.5,0,.8,0,.2,0,.4,0,.5.2,0,.4,0,.7,0s.4,0,.6,0v1h-4.1v-.8c.3,0,.5,0,.6-.1.1,0,.3-.2.3-.5,0-.2,0-.5,0-.9v-7.3s-1,0-1,0c-.6,0-1,.2-1.3.6-.3.4-.5,1-.5,1.8h-.8v-3.3h9.1v3.3c0,0-.8,0-.8,0Z" style="fill:#fff;"/><path d="M104.9,33.3c-1,0-1.8-.2-2.4-.5-.7-.3-1.2-.7-1.6-1.3s-.7-1.1-.9-1.8c-.2-.7-.3-1.3-.3-2s.1-1.3.3-1.9c.2-.6.5-1.2,1-1.8.4-.5,1-1,1.6-1.3s1.4-.5,2.3-.5,1.7.2,2.4.5,1.2.8,1.6,1.3c.4.5.7,1.1.9,1.8.2.6.3,1.3.3,1.9s-.1,1.2-.3,1.9c-.2.6-.5,1.2-1,1.8-.4.5-1,1-1.6,1.3s-1.4.5-2.3.5ZM105,32.4c.6,0,1-.1,1.4-.4.4-.3.7-.6.9-1,.2-.4.4-.9.5-1.4.1-.5.2-1,.2-1.5s0-1.3-.2-1.9c-.1-.6-.3-1.1-.6-1.5-.3-.4-.6-.8-1-1s-.9-.4-1.5-.4c-.5,0-1,.1-1.4.4s-.7.6-.9,1c-.2.4-.4.9-.5,1.4-.1.5-.2,1-.2,1.5s0,1,.2,1.6.3,1.1.6,1.6c.3.5.6.9,1,1.2.4.3.9.4,1.5.4Z" style="fill:#fff;"/><path d="M111.6,33.1v-.8c.3,0,.5,0,.6-.1.2,0,.3-.2.3-.5,0-.2,0-.5,0-.9v-6c0-.2,0-.5,0-.7,0-.2,0-.4,0-.5-.2,0-.4,0-.6,0s-.4,0-.5,0v-1c.7,0,1.3,0,2,0s1.3,0,2,0,1.7.1,2.3.3,1.1.5,1.4,1c.3.4.5,1,.5,1.7,0,.4-.1.8-.3,1.2-.2.4-.5.7-.9,1-.4.3-.9.5-1.6.7.2,0,.4.2.5.4.2.2.3.4.5.6l.8,1.2c.2.3.4.6.6.8.2.2.3.4.5.5.2.1.4.2.6.2v.8h-2.3c-.2-.2-.4-.4-.6-.6-.2-.2-.4-.5-.6-.9l-1.1-1.7c-.1-.2-.3-.4-.4-.6-.1-.2-.2-.3-.4-.5-.2,0-.3,0-.4,0s-.3,0-.4,0v2c0,.3,0,.5,0,.8,0,.2,0,.4,0,.5.1,0,.2,0,.4,0,.2,0,.3,0,.5,0,.2,0,.3,0,.4,0v1h-4.1ZM115.4,27.9c.6,0,1,0,1.4-.3.4-.2.6-.4.8-.8.2-.3.3-.8.3-1.3s0-.8-.2-1.1c-.1-.3-.3-.5-.5-.6-.2-.1-.5-.3-.7-.3-.3,0-.5,0-.8,0s-.5,0-.6.1c-.2,0-.3.2-.3.4,0,.2,0,.5,0,.8v3c.1,0,.2,0,.4,0s.3,0,.4,0Z" style="fill:#fff;"/><path d="M125.9,23.4c-.3,0-.5,0-.6.1-.2,0-.3.2-.3.4,0,.2,0,.5,0,.9v6c0,.3,0,.5,0,.8,0,.2,0,.4,0,.5.2,0,.4,0,.6,0s.4,0,.5,0v1h-4v-.8c.3,0,.5,0,.6-.1.2,0,.3-.2.3-.5,0-.2,0-.5,0-.9v-6c0-.2,0-.5,0-.7,0-.2,0-.4,0-.5-.2,0-.4,0-.6,0s-.4,0-.5,0v-1h4v.8Z" style="fill:#fff;"/><path d="M132.9,29.4c0-.4,0-.7-.2-.9-.1-.2-.3-.3-.5-.3-.2,0-.5,0-.8,0h-.6v2.8c0,.3,0,.5,0,.7s0,.4,0,.5h2.3c.3,0,.7,0,1-.2.3-.1.5-.4.7-.7s.3-.8.3-1.3h.8v3.2h-7.9v-.8c.3,0,.5,0,.6-.1.2,0,.3-.2.3-.5,0-.2,0-.5,0-.9v-6c0-.2,0-.5,0-.7,0-.2,0-.4,0-.5-.2,0-.4,0-.6,0s-.4,0-.5,0v-1h7.4v2.8c0,0-.7,0-.7,0,0-.6,0-1-.3-1.3-.2-.3-.4-.5-.7-.6-.3,0-.6-.1-.9-.1h-.8c-.3,0-.5,0-.6.1-.1,0-.3.2-.3.4s0,.5,0,.9v2.3h2.1s0-1.3,0-1.3h1v3.5h-.8Z" style="fill:#fff;"/><path d="M143.4,25.9c0-.5-.2-1-.4-1.4-.2-.4-.5-.7-.9-.9-.4-.2-.8-.3-1.3-.3s-.9.1-1.2.4c-.3.3-.5.6-.5,1s0,.6.3.9c.2.2.5.5.8.7s.8.4,1.3.6c.4.2.8.3,1.2.5.4.2.8.4,1.1.7.3.3.6.6.8.9.2.4.3.8.3,1.3s-.2,1.1-.5,1.5c-.3.4-.7.8-1.3,1-.6.2-1.2.4-2,.4s-.9,0-1.3-.2c-.5-.1-.9-.3-1.3-.6v.6s-1,0-1,0v-3.4s.8,0,.8,0c.1.8.4,1.5.9,1.9.5.4,1.1.7,1.9.7s.7,0,1-.2.5-.3.7-.6c.2-.2.2-.5.2-.8s-.1-.7-.4-1-.5-.5-.9-.6c-.4-.2-.8-.4-1.2-.5-.5-.2-.9-.4-1.3-.6-.4-.2-.8-.5-1.1-.7-.3-.3-.5-.6-.7-1-.2-.4-.3-.8-.3-1.3s0-.6.2-.9c.1-.3.3-.6.5-.9.3-.3.6-.5,1-.7.4-.2,1-.3,1.6-.3s.8,0,1.3.2c.5.1.9.3,1.3.6v-.6c0,0,1,0,1,0v3.4h-.8Z" style="fill:#fff;"/></svg>