<?xml version="1.0" encoding="UTF-8"?><svg id="Layer_1" xmlns="http://www.w3.org/2000/svg" viewBox="0 0 155.2 139.5"><path d="M51,13.8c-1.1,0-2-.2-2.7-.7s-1.3-1.1-1.8-1.9c-.4-.8-.6-1.7-.6-2.7s.1-1.4.3-2c.2-.7.5-1.3,1-1.8s1-1,1.6-1.3c.7-.3,1.4-.5,2.3-.5s.6,0,1,0c.3,0,.7.1,1,.3.3.1.7.3.9.4v-.7c0,0,1,0,1,0v3.5h-.8c0-.6-.3-1.1-.5-1.5-.3-.4-.6-.7-1-.9-.4-.2-.9-.3-1.4-.3s-1,.1-1.4.4c-.4.2-.8.6-1.1,1s-.5.9-.7,1.4-.2,1.1-.2,1.7c0,.9.1,1.7.4,2.4s.7,1.2,1.2,1.6c.5.4,1.1.6,1.8.6s.5,0,.7,0,.5,0,.8-.2c.3,0,.5-.2.7-.3v-1.5c0-.3,0-.5,0-.8s0-.5,0-.6c-.2,0-.4,0-.6,0-.2,0-.4,0-.5,0v-1h3.8v.8c-.2,0-.4,0-.5.1-.1,0-.2.2-.3.3s-.1.3-.2.5c0,.2,0,.4,0,.6v2.4h-.4c-.2,0-.5,0-.8.1-.3,0-.6.2-.9.3-.3,0-.7.2-1,.3-.4,0-.8.1-1.2.1Z" style="fill:#fff;"/><path d="M61.3,3.9c-.3,0-.5,0-.6.1s-.3.2-.3.4,0,.4,0,.7v4c0,.6,0,1.1.2,1.6.1.4.3.8.5,1.1.2.3.5.5.8.7.3.2.7.2,1.1.2.6,0,1.1-.1,1.5-.4.4-.3.7-.7.9-1.2.2-.5.3-1.2.3-1.9v-4c0-.2,0-.5,0-.7,0-.2,0-.4,0-.5-.2,0-.4,0-.6,0-.2,0-.4,0-.5,0v-1h3.2v.8c-.3,0-.5,0-.6.1-.2,0-.3.2-.3.4,0,.2,0,.5,0,.9v3.7c0,.8-.1,1.5-.3,2.1-.2.6-.5,1.1-.8,1.5-.4.4-.8.7-1.3.9-.5.2-1.1.3-1.7.3s-1.5-.1-2.1-.3c-.6-.2-1-.6-1.3-1-.3-.4-.6-1-.7-1.5s-.2-1.3-.2-2v-3.4c0-.3,0-.5,0-.8s0-.5,0-.7c-.2,0-.4,0-.6,0-.2,0-.4,0-.5,0v-1h4v.8Z" style="fill:#fff;"/><path d="M74.5,9.8c0-.4,0-.7-.2-.9-.1-.2-.3-.3-.5-.3-.2,0-.5,0-.8,0h-.6v2.8c0,.3,0,.5,0,.7s0,.4,0,.5h2.3c.3,0,.7,0,1-.2.3-.1.5-.4.7-.7s.3-.8.3-1.3h.8v3.2h-7.9v-.8c.3,0,.5,0,.6-.1s.3-.2.3-.5c0-.2,0-.5,0-.9v-6c0-.2,0-.5,0-.7,0-.2,0-.4,0-.5-.2,0-.4,0-.6,0-.2,0-.4,0-.5,0v-1h7.4v2.8c0,0-.7,0-.7,0,0-.6,0-1-.3-1.3-.2-.3-.4-.5-.7-.6-.3,0-.6-.1-.9-.1h-.8c-.3,0-.5,0-.6.1-.2,0-.3.2-.3.4,0,.2,0,.5,0,.9v2.3h2.1s0-1.3,0-1.3h1v3.5h-.8Z" style="fill:#fff;"/><path d="M79,13.5v-.8c.3,0,.5,0,.6-.1s.3-.2.3-.5c0-.2,0-.5,0-.9v-6c0-.2,0-.5,0-.7,0-.2,0-.4,0-.5-.2,0-.4,0-.6,0-.2,0-.4,0-.5,0v-1c.7,0,1.3,0,2,0,.7,0,1.3,0,2,0s1.7.1,2.3.3,1.1.5,1.4,1c.3.4.5,1,.5,1.7,0,.4-.1.8-.3,1.2-.2.4-.5.7-.9,1s-.9.5-1.6.7c.2,0,.4.2.5.4.2.2.3.4.5.6l.8,1.2c.2.3.4.6.6.8.2.2.3.4.5.5.2.1.4.2.6.2v.8h-2.3c-.2-.2-.4-.4-.6-.6s-.4-.5-.6-.9l-1.1-1.7c-.1-.2-.3-.4-.4-.6-.1-.2-.2-.3-.4-.5-.2,0-.3,0-.4,0s-.3,0-.4,0v2c0,.3,0,.5,0,.8,0,.2,0,.4,0,.5.1,0,.2,0,.4,0,.2,0,.3,0,.5,0s.3,0,.4,0v1h-4.1ZM82.7,8.4c.6,0,1,0,1.4-.3.4-.2.6-.4.8-.8.2-.3.3-.8.3-1.3s0-.8-.2-1.1c-.1-.3-.3-.5-.5-.6-.2-.1-.5-.3-.7-.3-.3,0-.5,0-.8,0s-.5,0-.6.1c-.2,0-.3.2-.3.4s0,.5,0,.8v3c.1,0,.2,0,.4,0,.1,0,.3,0,.4,0Z" style="fill:#fff;"/><path d="M89.3,13.5v-.8c.3,0,.5,0,.6-.1s.3-.2.3-.5c0-.2,0-.5,0-.9v-6c0-.2,0-.5,0-.7,0-.2,0-.4,0-.5-.2,0-.4,0-.6,0-.2,0-.4,0-.5,0v-1c.7,0,1.3,0,2,0,.7,0,1.3,0,2,0s1.7.1,2.3.3,1.1.5,1.4,1c.3.4.5,1,.5,1.7,0,.4-.1.8-.3,1.2-.2.4-.5.7-.9,1s-.9.5-1.6.7c.2,0,.4.2.5.4.2.2.3.4.5.6l.8,1.2c.2.3.4.6.6.8.2.2.3.4.5.5.2.1.4.2.6.2v.8h-2.3c-.2-.2-.4-.4-.6-.6s-.4-.5-.6-.9l-1.1-1.7c-.1-.2-.3-.4-.4-.6-.1-.2-.2-.3-.4-.5-.2,0-.3,0-.4,0s-.3,0-.4,0v2c0,.3,0,.5,0,.8,0,.2,0,.4,0,.5.1,0,.2,0,.4,0,.2,0,.3,0,.5,0s.3,0,.4,0v1h-4.1ZM93,8.4c.6,0,1,0,1.4-.3.4-.2.6-.4.8-.8.2-.3.3-.8.3-1.3s0-.8-.2-1.1c-.1-.3-.3-.5-.5-.6-.2-.1-.5-.3-.7-.3-.3,0-.5,0-.8,0s-.5,0-.6.1c-.2,0-.3.2-.3.4s0,.5,0,.8v3c.1,0,.2,0,.4,0,.1,0,.3,0,.4,0Z" style="fill:#fff;"/><path d="M103.6,3.9c-.3,0-.5,0-.6.1-.2,0-.3.2-.3.4,0,.2,0,.5,0,.9v6c0,.3,0,.5,0,.8,0,.2,0,.4,0,.5.2,0,.4,0,.6,0,.2,0,.4,0,.5,0v1h-4v-.8c.3,0,.5,0,.6-.1.2,0,.3-.2.3-.5,0-.2,0-.5,0-.9v-6c0-.2,0-.5,0-.7,0-.2,0-.4,0-.5-.2,0-.4,0-.6,0-.2,0-.4,0-.5,0v-1h4v.8Z" style="fill:#fff;"/><path d="M105.4,13.5v-.8c.3,0,.5,0,.6-.1.2,0,.3-.2.3-.5,0-.2,0-.5,0-.9v-6c0-.2,0-.5,0-.7,0-.2,0-.4,0-.5-.2,0-.4,0-.6,0-.2,0-.4,0-.5,0v-1h4v.8c-.3,0-.5,0-.6.1-.2,0-.3.2-.3.4,0,.2,0,.5,0,.9v6c0,.3,0,.5,0,.7s0,.4,0,.5h2.3c.6,0,1.1-.2,1.4-.6.3-.4.5-1,.5-1.9h.8v3.4h-7.9Z" style="fill:#fff;"/><path d="M114.7,13.5v-.8c.3,0,.5,0,.6-.1.2,0,.3-.2.3-.5,0-.2,0-.5,0-.9v-6c0-.2,0-.5,0-.7,0-.2,0-.4,0-.5-.2,0-.4,0-.6,0-.2,0-.4,0-.5,0v-1h4v.8c-.3,0-.5,0-.6.1-.2,0-.3.2-.3.4,0,.2,0,.5,0,.9v6c0,.3,0,.5,0,.7s0,.4,0,.5h2.3c.6,0,1.1-.2,1.4-.6.3-.4.5-1,.5-1.9h.8v3.4h-7.9Z" style="fill:#fff;"/><path d="M123.3,13.5v-.9c.3,0,.5,0,.7-.2.2-.2.3-.4.4-.6.1-.3.2-.6.3-.9l3-8.1h.8l3.3,8.3c0,.2.1.4.2.7,0,.3.2.6.2.8.2,0,.3,0,.5,0,.2,0,.3,0,.4,0v1h-3.8v-.8c.3,0,.5,0,.6-.2.1-.1.2-.3.1-.5,0-.2,0-.4-.2-.6l-.4-1h-3.5c0,0-.3,1.1-.3,1.1,0,.2-.1.4-.2.6,0,.2-.2.4-.2.6.2,0,.4,0,.6,0s.4,0,.5,0v1h-3.1ZM126.4,9.5h2.8l-.8-2.2c-.1-.3-.2-.7-.3-1-.1-.3-.2-.7-.3-1h0c0,.2-.1.5-.2.8,0,.3-.2.7-.4,1.1l-.8,2.3Z" style="fill:#fff;"/><path d="M49.4,31.7l-2.7-8c-.1-.4-.2-.7-.3-1,0-.3-.1-.5-.1-.7-.2,0-.3,0-.5,0s-.3,0-.4,0v-1h4.2v.8c-.4,0-.7,0-.9.3-.2.2-.2.5,0,1,.2.6.3,1.2.5,1.7.2.6.3,1.1.5,1.7.1.4.2.7.3,1.1,0,.3.2.7.3,1.2h0c0-.2,0-.4.2-.6,0-.3.1-.5.2-.8,0-.3.2-.5.2-.8,0-.2.1-.4.1-.5.2-.6.4-1.3.6-1.9s.4-1.2.6-1.8c.2-.6.3-1.1.5-1.5h1.1c.1.4.3.9.4,1.3.2.5.3,1,.5,1.5s.3,1,.5,1.5c.2.5.3.9.4,1.3.1.4.2.8.3,1.2s.2.8.3,1.2h0c0-.3.2-.6.3-1,0-.3.2-.7.3-1,.1-.4.2-.8.3-1.1,0-.3.2-.7.3-.9,0-.3.2-.6.2-.8s.1-.5.2-.8c0-.2.1-.4.2-.7,0-.2.2-.4.3-.6-.2,0-.4,0-.6,0s-.4,0-.6,0v-1h3.3v.8c-.3,0-.5,0-.7.2-.2.1-.4.3-.5.5s-.3.6-.5,1.1c-.4,1.3-.8,2.7-1.3,4s-.8,2.6-1.3,4h-1l-1.9-5.7c-.1-.4-.2-.7-.3-1,0-.3-.2-.6-.3-1,0,.3-.1.6-.2.9,0,.3-.2.6-.2.9l-1.9,5.9h-1Z" style="fill:#fff;"/><path d="M59.8,31.5v-.9c.3,0,.5,0,.7-.2.2-.2.3-.4.4-.6.1-.3.2-.6.3-.9l3-8.1h.8l3.3,8.3c0,.2.1.4.2.7,0,.3.2.6.2.8.2,0,.3,0,.5,0,.2,0,.3,0,.4,0v1h-3.8v-.8c.3,0,.5,0,.6-.2.1-.1.2-.3.1-.5,0-.2,0-.4-.2-.6l-.4-1h-3.5c0,0-.3,1.1-.3,1.1,0,.2-.1.4-.2.6,0,.2-.2.4-.2.6.2,0,.4,0,.6,0s.4,0,.5,0v1h-3.1ZM62.9,27.5h2.8l-.8-2.2c-.1-.3-.2-.7-.3-1-.1-.3-.2-.7-.3-1h0c0,.2-.1.5-.2.8,0,.3-.2.7-.4,1.1l-.8,2.3Z" style="fill:#fff;"/><path d="M70.7,31.5v-.8c.3,0,.5,0,.6-.1.2,0,.3-.2.3-.5,0-.2,0-.5,0-.9v-6c0-.2,0-.5,0-.7,0-.2,0-.4,0-.5-.2,0-.4,0-.6,0-.2,0-.4,0-.5,0v-1c.7,0,1.3,0,2,0,.7,0,1.3,0,2,0s1.7.1,2.3.3,1.1.5,1.4,1,.5,1,.5,1.7c0,.4-.1.8-.3,1.2-.2.4-.5.7-.9,1-.4.3-.9.5-1.6.7.2,0,.4.2.5.4.2.2.3.4.5.6l.8,1.2c.2.3.4.6.6.8.2.2.3.4.5.5.2.1.4.2.6.2v.8h-2.3c-.2-.2-.4-.4-.6-.6-.2-.2-.4-.5-.6-.9l-1.1-1.7c-.1-.2-.3-.4-.4-.6s-.2-.3-.4-.5c-.2,0-.3,0-.4,0s-.3,0-.4,0v2c0,.3,0,.5,0,.8,0,.2,0,.4,0,.5.1,0,.2,0,.4,0,.2,0,.3,0,.5,0,.2,0,.3,0,.4,0v1h-4.1ZM74.4,26.4c.6,0,1,0,1.4-.3.4-.2.6-.4.8-.8.2-.3.3-.8.3-1.3s0-.8-.2-1.1-.3-.5-.5-.6c-.2-.1-.5-.3-.7-.3-.3,0-.5,0-.8,0s-.5,0-.6.1-.3.2-.3.4c0,.2,0,.5,0,.8v3c.1,0,.2,0,.4,0,.1,0,.3,0,.4,0Z" style="fill:#fff;"/><path d="M81,31.5v-.8c.3,0,.5,0,.6-.1.2,0,.3-.2.3-.5,0-.2,0-.5,0-.9v-6c0-.2,0-.5,0-.7,0-.2,0-.4,0-.5-.2,0-.4,0-.6,0-.2,0-.4,0-.5,0v-1h7.3v2.8c0,0-.8,0-.8,0,0-.6,0-1-.3-1.3-.2-.3-.4-.5-.7-.6-.3,0-.6-.1-.9-.1h-.7c-.3,0-.5,0-.6.2s-.2.2-.3.5c0,.2,0,.5,0,.9v2.6h1.9v-1.3c0,0,.9,0,.9,0v3.5h-.8c0-.4,0-.7-.2-.9-.1-.2-.3-.3-.5-.4-.2,0-.5,0-.8,0h-.4v2.5c0,.3,0,.5,0,.8,0,.2,0,.4,0,.5.1,0,.3,0,.5,0,.2,0,.3,0,.5,0,.2,0,.3,0,.4,0v1h-4.3Z" style="fill:#fff;"/><path d="M88.2,31.5v-.9c.3,0,.5,0,.7-.2.2-.2.3-.4.4-.6.1-.3.2-.6.3-.9l3-8.1h.8l3.3,8.3c0,.2.1.4.2.7,0,.3.2.6.2.8.2,0,.3,0,.5,0,.2,0,.3,0,.4,0v1h-3.8v-.8c.3,0,.5,0,.6-.2.1-.1.2-.3.1-.5,0-.2,0-.4-.2-.6l-.4-1h-3.5c0,0-.3,1.1-.3,1.1,0,.2-.1.4-.2.6,0,.2-.2.4-.2.6.2,0,.4,0,.6,0s.4,0,.5,0v1h-3.1ZM91.3,27.5h2.8l-.8-2.2c-.1-.3-.2-.7-.3-1-.1-.3-.2-.7-.3-1h0c0,.2-.1.5-.2.8,0,.3-.2.7-.4,1.1l-.8,2.3Z" style="fill:#fff;"/><path d="M99.1,31.5v-.8c.3,0,.5,0,.6-.1s.3-.2.3-.5c0-.2,0-.5,0-.9v-6c0-.2,0-.5,0-.7,0-.2,0-.4,0-.5-.2,0-.4,0-.6,0-.2,0-.4,0-.5,0v-1c.7,0,1.3,0,2,0,.7,0,1.3,0,2,0s1.7.1,2.3.3,1.1.5,1.4,1c.3.4.5,1,.5,1.7,0,.4-.1.8-.3,1.2-.2.4-.5.7-.9,1s-.9.5-1.6.7c.2,0,.4.2.5.4.2.2.3.4.5.6l.8,1.2c.2.3.4.6.6.8.2.2.3.4.5.5.2.1.4.2.6.2v.8h-2.3c-.2-.2-.4-.4-.6-.6s-.4-.5-.6-.9l-1.1-1.7c-.1-.2-.3-.4-.4-.6-.1-.2-.2-.3-.4-.5-.2,0-.3,0-.4,0s-.3,0-.4,0v2c0,.3,0,.5,0,.8,0,.2,0,.4,0,.5.1,0,.2,0,.4,0,.2,0,.3,0,.5,0s.3,0,.4,0v1h-4.1ZM102.8,26.4c.6,0,1,0,1.4-.3.4-.2.6-.4.8-.8.2-.3.3-.8.3-1.3s0-.8-.2-1.1c-.1-.3-.3-.5-.5-.6-.2-.1-.5-.3-.7-.3-.3,0-.5,0-.8,0s-.5,0-.6.1c-.2,0-.3.2-.3.4s0,.5,0,.8v3c.1,0,.2,0,.4,0,.1,0,.3,0,.4,0Z" style="fill:#fff;"/><path d="M114.6,27.8c0-.4,0-.7-.2-.9-.1-.2-.3-.3-.5-.3s-.5,0-.8,0h-.6v2.8c0,.3,0,.5,0,.7s0,.4,0,.5h2.3c.3,0,.7,0,1-.2.3-.1.5-.4.7-.7s.3-.8.3-1.3h.8v3.2h-7.9v-.8c.3,0,.5,0,.6-.1.2,0,.3-.2.3-.5,0-.2,0-.5,0-.9v-6c0-.2,0-.5,0-.7,0-.2,0-.4,0-.5-.2,0-.4,0-.6,0-.2,0-.4,0-.5,0v-1h7.4v2.8c0,0-.7,0-.7,0,0-.6,0-1-.3-1.3-.2-.3-.4-.5-.7-.6-.3,0-.6-.1-.9-.1h-.8c-.3,0-.5,0-.6.1-.1,0-.3.2-.3.4,0,.2,0,.5,0,.9v2.3h2.1s0-1.3,0-1.3h1v3.5h-.8Z" style="fill:#fff;"/><path d="M122.5,31.5v-.9c.3,0,.5,0,.7-.2.2-.2.3-.4.4-.6.1-.3.2-.6.3-.9l3-8.1h.8l3.3,8.3c0,.2.1.4.2.7,0,.3.2.6.2.8.2,0,.3,0,.5,0,.2,0,.3,0,.4,0v1h-3.8v-.8c.3,0,.5,0,.6-.2.1-.1.2-.3.1-.5,0-.2,0-.4-.2-.6l-.4-1h-3.5c0,0-.3,1.1-.3,1.1,0,.2-.1.4-.2.6,0,.2-.2.4-.2.6.2,0,.4,0,.6,0s.4,0,.5,0v1h-3.1ZM125.6,27.5h2.8l-.8-2.2c-.1-.3-.2-.7-.3-1-.1-.3-.2-.7-.3-1h0c0,.2-.1.5-.2.8,0,.3-.2.7-.4,1.1l-.8,2.3Z" style="fill:#fff;"/><path d="M141.5,31.7l-5.2-6.8c-.1-.2-.2-.3-.4-.5s-.2-.3-.4-.5h0v5.2c0,.3,0,.5,0,.8s0,.5,0,.6c.2,0,.4,0,.6,0,.2,0,.4,0,.5,0v1h-3.2v-.8c.3,0,.5,0,.6-.1.1,0,.3-.2.3-.4,0-.2.1-.4.1-.7v-6.2c0-.2,0-.5,0-.7s0-.4,0-.5c-.2,0-.4,0-.6,0-.2,0-.4,0-.5,0v-1h2.2l4.9,6.4c.2.3.4.5.5.7.2.2.3.4.4.6h0v-5.5c0-.2,0-.5,0-.7,0-.2,0-.4,0-.5-.2,0-.3,0-.6,0s-.4,0-.5,0v-1h3.2v.8c-.3,0-.5,0-.6.1-.2,0-.3.2-.3.4,0,.2,0,.5,0,.9v8.4h-1.1Z" style="fill:#fff;"/><path d="M145.3,30.7c.3,0,.5,0,.6-.1.2,0,.3-.2.3-.5,0-.2,0-.5,0-.9v-6c0-.2,0-.5,0-.7,0-.2,0-.4,0-.5-.2,0-.4,0-.6,0-.2,0-.4,0-.5,0v-1h4.1c1,0,1.8.1,2.5.4.7.3,1.3.6,1.8,1.1.5.5.9,1,1.1,1.7.3.6.4,1.3.4,2s-.1,1.3-.3,1.9-.6,1.2-1,1.7c-.5.5-1.1.9-1.8,1.2-.7.3-1.6.5-2.6.5h-4.2v-.8ZM148.2,29.3c0,.3,0,.5,0,.8,0,.2,0,.4,0,.5.2,0,.3,0,.5,0,.2,0,.4,0,.6,0,.2,0,.3,0,.4,0,.6,0,1.1-.1,1.5-.3.4-.2.8-.5,1.1-.9.3-.4.5-.8.7-1.3.1-.5.2-1,.2-1.6,0-1-.2-1.8-.5-2.5-.3-.7-.7-1.2-1.3-1.5-.6-.3-1.3-.5-2.1-.5-.3,0-.5,0-.7.1s-.3.2-.3.5c0,.2,0,.5,0,.9v6Z" style="fill:#fff;"/><path d="M46,49.5v-.8c.3,0,.5,0,.6-.1s.3-.2.3-.5c0-.2,0-.5,0-.9v-6c0-.2,0-.5,0-.7,0-.2,0-.4,0-.5-.2,0-.4,0-.6,0-.2,0-.4,0-.5,0v-1c.7,0,1.3,0,2,0,.7,0,1.3,0,2,0s1.7.1,2.3.3,1.1.5,1.4,1c.3.4.5,1,.5,1.7,0,.4-.1.8-.3,1.2-.2.4-.5.7-.9,1s-.9.5-1.6.7c.2,0,.4.2.5.4.2.2.3.4.5.6l.8,1.2c.2.3.4.6.6.8.2.2.3.4.5.5.2.1.4.2.6.2v.8h-2.3c-.2-.2-.4-.4-.6-.6s-.4-.5-.6-.9l-1.1-1.7c-.1-.2-.3-.4-.4-.6-.1-.2-.2-.3-.4-.5-.2,0-.3,0-.4,0s-.3,0-.4,0v2c0,.3,0,.5,0,.8,0,.2,0,.4,0,.5.1,0,.2,0,.4,0,.2,0,.3,0,.5,0s.3,0,.4,0v1h-4.1ZM49.8,44.4c.6,0,1,0,1.4-.3.4-.2.6-.4.8-.8.2-.3.3-.8.3-1.3s0-.8-.2-1.1c-.1-.3-.3-.5-.5-.6-.2-.1-.5-.3-.7-.3-.3,0-.5,0-.8,0s-.5,0-.6.1c-.2,0-.3.2-.3.4s0,.5,0,.8v3c.1,0,.2,0,.4,0,.1,0,.3,0,.4,0Z" style="fill:#fff;"/><path d="M61.5,45.8c0-.4,0-.7-.2-.9-.1-.2-.3-.3-.5-.3-.2,0-.5,0-.8,0h-.6v2.8c0,.3,0,.5,0,.7s0,.4,0,.5h2.3c.3,0,.7,0,1-.2.3-.1.5-.4.7-.7s.3-.8.3-1.3h.8v3.2h-7.9v-.8c.3,0,.5,0,.6-.1s.3-.2.3-.5c0-.2,0-.5,0-.9v-6c0-.2,0-.5,0-.7,0-.2,0-.4,0-.5-.2,0-.4,0-.6,0-.2,0-.4,0-.5,0v-1h7.4v2.8c0,0-.7,0-.7,0,0-.6,0-1-.3-1.3-.2-.3-.4-.5-.7-.6-.3,0-.6-.1-.9-.1h-.8c-.3,0-.5,0-.6.1-.2,0-.3.2-.3.4,0,.2,0,.5,0,.9v2.3h2.1s0-1.3,0-1.3h1v3.5h-.8Z" style="fill:#fff;"/><path d="M72,42.3c0-.5-.2-1-.4-1.4-.2-.4-.5-.7-.9-.9-.4-.2-.8-.3-1.3-.3s-.9.1-1.2.4c-.3.3-.5.6-.5,1s0,.6.3.9c.2.2.5.5.8.7.4.2.8.4,1.3.6.4.2.8.3,1.2.5.4.2.8.4,1.1.7.3.3.6.6.8.9.2.4.3.8.3,1.3s-.2,1.1-.5,1.5c-.3.4-.7.8-1.3,1-.6.2-1.2.4-2,.4s-.9,0-1.3-.2c-.5-.1-.9-.3-1.3-.6v.6s-1,0-1,0v-3.4s.8,0,.8,0c.1.8.4,1.5.9,1.9.5.4,1.1.7,1.9.7s.7,0,1-.2c.3-.1.5-.3.7-.6.2-.2.2-.5.2-.8s-.1-.7-.4-1-.5-.5-.9-.6c-.4-.2-.8-.4-1.2-.5-.5-.2-.9-.4-1.3-.6s-.8-.5-1.1-.7c-.3-.3-.5-.6-.7-1-.2-.4-.3-.8-.3-1.3s0-.6.2-.9c.1-.3.3-.6.5-.9.3-.3.6-.5,1-.7.4-.2,1-.3,1.6-.3s.8,0,1.3.2.9.3,1.3.6v-.6c0,0,1,0,1,0v3.4h-.8Z" style="fill:#fff;"/><path d="M79.1,39.9c-.3,0-.5,0-.6.1-.2,0-.3.2-.3.4,0,.2,0,.5,0,.9v6c0,.3,0,.5,0,.8,0,.2,0,.4,0,.5.2,0,.4,0,.6,0,.2,0,.4,0,.5,0v1h-4v-.8c.3,0,.5,0,.6-.1.2,0,.3-.2.3-.5,0-.2,0-.5,0-.9v-6c0-.2,0-.5,0-.7,0-.2,0-.4,0-.5-.2,0-.4,0-.6,0-.2,0-.4,0-.5,0v-1h4v.8Z" style="fill:#fff;"/><path d="M87,42.3c0-.5-.2-1-.4-1.4-.2-.4-.5-.7-.9-.9-.4-.2-.8-.3-1.3-.3s-.9.1-1.2.4c-.3.3-.5.6-.5,1s0,.6.3.9c.2.2.5.5.8.7.4.2.8.4,1.3.6.4.2.8.3,1.2.5.4.2.8.4,1.1.7.3.3.6.6.8.9.2.4.3.8.3,1.3s-.2,1.1-.5,1.5c-.3.4-.7.8-1.3,1-.6.2-1.2.4-2,.4s-.9,0-1.3-.2c-.5-.1-.9-.3-1.3-.6v.6s-1,0-1,0v-3.4s.8,0,.8,0c.1.8.4,1.5.9,1.9.5.4,1.1.7,1.9.7s.7,0,1-.2c.3-.1.5-.3.7-.6.2-.2.2-.5.2-.8s-.1-.7-.4-1-.5-.5-.9-.6c-.4-.2-.8-.4-1.2-.5-.5-.2-.9-.4-1.3-.6s-.8-.5-1.1-.7c-.3-.3-.5-.6-.7-1-.2-.4-.3-.8-.3-1.3s0-.6.2-.9c.1-.3.3-.6.5-.9.3-.3.6-.5,1-.7.4-.2,1-.3,1.6-.3s.8,0,1.3.2.9.3,1.3.6v-.6c0,0,1,0,1,0v3.4h-.8Z" style="fill:#fff;"/><path d="M97.9,42.4c0-.6,0-1-.2-1.4s-.3-.6-.6-.8c-.3-.2-.6-.3-1-.3h-.9v7.4c0,.3,0,.5,0,.8,0,.2,0,.4,0,.5.2,0,.4,0,.7,0,.2,0,.4,0,.6,0v1h-4.1v-.8c.3,0,.5,0,.6-.1.2,0,.3-.2.3-.5,0-.2,0-.5,0-.9v-7.3s-1,0-1,0c-.6,0-1,.2-1.3.6-.3.4-.5,1-.5,1.8h-.8v-3.3h9.1v3.3c0,0-.8,0-.8,0Z" style="fill:#fff;"/><path d="M98.7,49.5v-.9c.3,0,.5,0,.7-.2s.3-.4.4-.6.2-.6.3-.9l3-8.1h.8l3.3,8.3c0,.2.1.4.2.7s.2.6.2.8c.2,0,.3,0,.5,0s.3,0,.4,0v1h-3.8v-.8c.3,0,.5,0,.6-.2.1-.1.2-.3.1-.5,0-.2,0-.4-.2-.6l-.4-1h-3.5c0,0-.3,1.1-.3,1.1,0,.2-.1.4-.2.6,0,.2-.2.4-.2.6.2,0,.4,0,.6,0s.4,0,.5,0v1h-3.1ZM101.7,45.5h2.8l-.8-2.2c-.1-.3-.2-.7-.3-1-.1-.3-.2-.7-.3-1h0c0,.2-.1.5-.2.8,0,.3-.2.7-.4,1.1l-.8,2.3Z" style="fill:#fff;"/><path d="M117.6,49.7l-5.2-6.8c-.1-.2-.2-.3-.4-.5s-.2-.3-.4-.5h0v5.2c0,.3,0,.5,0,.8,0,.2,0,.5,0,.6.2,0,.4,0,.6,0,.2,0,.4,0,.5,0v1h-3.2v-.8c.3,0,.5,0,.6-.1.1,0,.3-.2.3-.4,0-.2.1-.4.1-.7v-6.2c0-.2,0-.5,0-.7s0-.4,0-.5c-.2,0-.3,0-.6,0-.2,0-.4,0-.5,0v-1h2.2l4.9,6.4c.2.3.4.5.5.7.2.2.3.4.4.6h0v-5.5c0-.2,0-.5,0-.7,0-.2,0-.4,0-.5-.2,0-.3,0-.6,0-.2,0-.4,0-.5,0v-1h3.2v.8c-.3,0-.5,0-.6.1s-.3.2-.3.4,0,.5,0,.9v8.4h-1.1Z" style="fill:#fff;"/><path d="M129.2,42.4c-.1-.9-.4-1.5-.9-2-.5-.5-1.1-.7-1.8-.7s-1,.1-1.4.4c-.4.2-.8.6-1.1,1-.3.4-.5.9-.7,1.4-.2.5-.2,1.1-.2,1.7,0,.9.1,1.7.4,2.4.3.7.7,1.2,1.2,1.6.5.4,1.1.6,1.8.6s1.3-.2,1.9-.5c.6-.3,1.1-.8,1.6-1.3l.6.6c-.5.6-1,1.1-1.5,1.5-.5.3-1,.6-1.6.7-.5.1-1,.2-1.4.2-.8,0-1.5-.1-2.1-.4-.6-.3-1.2-.7-1.6-1.1-.5-.5-.8-1-1.1-1.7-.2-.6-.4-1.3-.4-2.1s.1-1.4.3-2,.5-1.3,1-1.8,1-1,1.6-1.3c.7-.3,1.4-.5,2.3-.5s.9,0,1.4.2c.5.1.9.3,1.3.6v-.7c0,0,1,0,1,0v3.5h-.8Z" style="fill:#fff;"/><path d="M137.1,45.8c0-.4,0-.7-.2-.9-.1-.2-.3-.3-.5-.3-.2,0-.5,0-.8,0h-.6v2.8c0,.3,0,.5,0,.7s0,.4,0,.5h2.3c.3,0,.7,0,1-.2.3-.1.5-.4.7-.7s.3-.8.3-1.3h.8v3.2h-7.9v-.8c.3,0,.5,0,.6-.1s.3-.2.3-.5c0-.2,0-.5,0-.9v-6c0-.2,0-.5,0-.7,0-.2,0-.4,0-.5-.2,0-.4,0-.6,0-.2,0-.4,0-.5,0v-1h7.4v2.8c0,0-.7,0-.7,0,0-.6,0-1-.3-1.3-.2-.3-.4-.5-.7-.6-.3,0-.6-.1-.9-.1h-.8c-.3,0-.5,0-.6.1-.2,0-.3.2-.3.4,0,.2,0,.5,0,.9v2.3h2.1s0-1.3,0-1.3h1v3.5h-.8Z" style="fill:#fff;"/><path d="M1.7,24.5c.3,0,.5,0,.6,0,.1,0,.3-.3.5-.7.2-.3.3-.5.4-.8.1-.2.3-.6.6-1.1.2-.5.6-1.2,1-2.2.4-1,1-2.3,1.8-4,.7-1.7,1.7-3.8,2.9-6.5l.6.2c-.2.8-.5,1.7-.8,2.7-.3,1-.6,2.1-.8,3.1-.3,1.1-.6,2.1-.8,3.1-.3,1-.5,1.9-.7,2.6-.2.7-.3,1.3-.4,1.7-.1.5-.2,1.1-.3,1.8-.1.6-.2,1.2-.2,1.7,0,.7.2,1.4.5,2,.3.6.5,1.3.8,2.1.3.8.4,1.8.3,3,0,1-.3,1.8-1,2.4-.6.6-1.4.9-2.3.9s-.9-.2-1.3-.5-.7-.8-.8-1.5c.2-1.4.4-2.7.4-3.9,0-1.2,0-2.2-.1-3.1-.1-.8-.3-1.3-.6-1.5-.3-.2-.5-.3-.9-.4-.3,0-.7-.1-1.1-.2v-.7h1.7ZM.5,8.7c1.6.3,2.9.7,3.8,1.3s1.5,1.2,1.9,1.8c.3.6.5,1.3.4,1.8-.1.6-.4,1.1-.8,1.4-.4.4-.9.6-1.5.6s-1.2-.2-1.9-.7c0-1.1-.3-2.1-.8-3.2-.5-1.1-1-2-1.6-2.7l.4-.2ZM2.2.3c1.8.3,3.2.7,4.2,1.2,1,.6,1.7,1.2,2.1,1.8.4.7.6,1.3.5,1.9,0,.6-.3,1.1-.7,1.5-.4.4-.9.6-1.5.7-.6,0-1.3-.2-1.9-.7-.1-.7-.4-1.5-.7-2.2-.3-.7-.7-1.5-1.1-2.2-.4-.7-.8-1.3-1.2-1.8l.3-.2ZM16.2,12.6c0,1.3,0,2.7-.1,4.3,0,1.6-.3,3.2-.6,4.9-.3,1.7-.7,3.4-1.3,5.2-.6,1.7-1.4,3.4-2.4,5-1,1.6-2.3,3-3.9,4.4l-.4-.3c1-1.9,1.8-3.8,2.4-5.9.6-2,1-4.1,1.3-6.1s.5-4,.5-6,.1-3.7.1-5.4v-5.2h4.4v5.2ZM20.3,4c.8.8,1.5,1.5,2,2,.5.6,1,1.1,1.4,1.5-.1.4-.5.6-1,.6h-13.7l-.3-1.1h9.6l1.9-3.1ZM12.1,0c1.7.4,3,.8,3.9,1.4s1.6,1.2,1.9,1.9c.3.7.4,1.3.3,1.9-.1.6-.4,1-.8,1.4-.4.4-.9.5-1.5.5s-1.2-.3-1.9-.8c0-.7-.2-1.4-.4-2.1-.2-.7-.5-1.4-.8-2.1-.3-.7-.6-1.3-1-1.9l.3-.2ZM17.7,14.4l2.2-2.3,3.9,3.4c-.1.2-.3.3-.6.4-.2.1-.6.2-1,.2,0,3.3,0,6-.2,8.3s-.2,4-.4,5.4c-.2,1.4-.4,2.4-.6,3.2-.3.8-.6,1.4-1.1,1.8-.6.5-1.2.9-1.9,1.2-.7.3-1.5.4-2.4.4,0-.7,0-1.3,0-1.8s-.2-.9-.4-1.2c-.2-.3-.5-.6-.9-.8-.4-.2-.8-.4-1.4-.5v-.5c.4,0,.9,0,1.5,0,.6,0,1,0,1.4,0,.5,0,.8-.1,1.1-.4.3-.3.5-1.1.7-2.2s.3-3,.4-5.3c0-2.4.1-5.5.2-9.3h-.4ZM20,14.4v1.1h-6v-1.1h6ZM30.7,1.9c-.1.4-.6.6-1.3.5-.5,1.1-1.1,2.3-1.9,3.5-.8,1.3-1.7,2.6-2.7,3.8-1,1.3-2,2.4-3.1,3.4l-.3-.4c.5-1.2,1-2.6,1.4-4.1.4-1.6.8-3.1,1.1-4.6.3-1.5.5-2.9.7-4l6.1,1.9ZM33.7,18.2c.8.8,1.5,1.4,2,1.9s1,1,1.4,1.5c0,.2-.2.4-.3.5-.2.1-.4.2-.7.2h-13.2l-.3-1.1h9.3l1.9-3ZM32.4,17.5c0,.3-.2.5-.4.7-.2.2-.5.3-1,.3v12.9c0,1-.1,1.9-.3,2.6-.2.7-.7,1.3-1.4,1.7-.7.4-1.8.7-3.4.8,0-.7,0-1.3-.1-1.8,0-.5-.2-1-.4-1.3-.2-.3-.5-.6-.8-.8-.3-.2-.9-.4-1.6-.5v-.5c.5,0,1,0,1.3,0,.4,0,.7,0,1.1,0,.3,0,.6,0,.7,0,.2,0,.4,0,.5-.1,0,0,.1-.2.1-.4v-14.2l5.7.5ZM32.9,12.3v1.1h-8.6l-.3-1.1h9ZM33.1,3.9c.9.8,1.7,1.5,2.4,2,.7.6,1.2,1.1,1.7,1.6,0,.2-.1.4-.3.5s-.4.2-.7.2h-11.1v-1.1h5.8l2.3-3.1ZM30.3,12.3l2.2-2.2,3.8,3.5c-.2.2-.3.3-.6.3-.2,0-.5,0-.9,0-.5.4-1.1.8-1.7,1.3-.6.5-1.3.9-2,1.4-.7.5-1.3.9-1.9,1.2h-.5c.2-.5.5-1.1.7-1.8.3-.7.5-1.4.7-2.1.2-.7.4-1.2.5-1.7h-.4Z" style="fill:#fff;"/><path d="M32.5,69.5c1,.7,1.8,1.3,2.5,1.9.7.5,1.3,1,1.9,1.5-.1.4-.5.6-1.1.6H.6l-.3-1.1h29.8l2.4-2.9ZM19.1,55.5c.5.5,1,.9,1.4,1.3.4.3.7.7,1,1-.1.4-.4.6-1,.6H.8l-.3-1.1h17.4l1.3-1.9ZM17.3,43.6c.8.6,1.5,1.2,2,1.6.6.5,1.1.9,1.5,1.3,0,.4-.4.6-1,.6H1.2l-.3-1.1h14.5l1.9-2.4ZM5,60.4l1,.6v2h.2l-1.2,1.4-4.1-1.9c.2-.3.5-.5.9-.8.4-.3.7-.5,1-.6l-.7,1.3v-2.1h2.9ZM7.4,59.4c0,.3-.1.5-.3.7-.2.2-.6.3-1,.4v1.4h-3.9v-3l5.2.5ZM6.2,55.9c0,.1-.2.2-.5.4-.3.2-.8.3-1.3.5-.5.2-1,.2-1.5.2h-.5v-9.7l4,1.6h10v1.1H6.2v5.9ZM29.5,66.1c1,.7,1.8,1.3,2.5,1.8.7.5,1.3,1,1.8,1.4-.1.4-.5.6-1,.6H3l-.3-1.1h24.5l2.4-2.7ZM31.1,66c-.2.2-.6.3-1,.2-.4,0-.9-.1-1.5-.4-2.1.3-4.5.5-7.2.7-2.7.2-5.5.3-8.4.3-2.9,0-5.7,0-8.5-.2v-.6c1.9-.2,3.9-.4,6-.7,2.1-.3,4.2-.6,6.3-1,2.1-.4,4-.8,5.7-1.2,1.8-.4,3.3-.9,4.6-1.3l4.1,4.2ZM16.8,54.7v1.1H4.4v-1.1h12.3ZM16.6,51.8v1.1H4.6v-1.1h12ZM16.9,61.9v1.1H5.1v-1.1h11.8ZM14.1,44.1c0,.2-.1.4-.3.6s-.5.3-.9.4v17.3h-4.3v-18.9l5.5.6ZM21.3,75.5c0,.9-.1,1.7-.4,2.4-.3.7-.9,1.2-1.9,1.5-1,.4-2.4.6-4.3.7,0-.6-.2-1.1-.3-1.5-.1-.4-.4-.8-.8-1.1-.3-.3-.8-.5-1.4-.7-.6-.2-1.5-.4-2.7-.6v-.5c1,0,1.9.1,2.6.2.7,0,1.4,0,2.1.1.7,0,1.1,0,1.4,0s.5,0,.6-.2c.1-.1.2-.3.2-.5v-10h5v10ZM14.9,48.9l1.7-1.7,3.5,2.6c0,.1-.2.2-.4.3-.2,0-.4.2-.6.2v5.2c0,.1-.2.2-.5.4s-.8.3-1.3.5c-.5.1-1,.2-1.4.2h-.7v-7.7h-.3ZM20.5,59.2c0,.2-.1.4-.3.6s-.4.3-.9.3v2.9c0,0-.2.2-.5.3s-.8.2-1.3.4c-.5.1-1,.2-1.5.2h-.7v-5.1l5.1.4ZM21.2,45v-1.3l4.6,1.7h-.7v1.5c0,.6-.1,1.4-.4,2.2-.3.9-.8,1.7-1.6,2.5-.8.8-2.1,1.5-3.7,2.1l-.3-.5c.7-.7,1.2-1.4,1.5-2.2.3-.7.5-1.5.5-2.2,0-.7,0-1.4,0-2v-1.9ZM29.2,53.5l2.4-2.2,3.9,3.2c-.1.2-.3.3-.5.4-.2,0-.5.1-.9.2-1.3,2.1-3.1,3.8-5.6,5-2.5,1.2-5.4,2.1-8.8,2.6l-.2-.5c2.6-.8,4.7-2,6.5-3.5,1.7-1.5,3-3.2,3.6-5.2h-.4ZM31,53.5v1.1h-10.7l-.3-1.1h11ZM22,53.5c.8,1.4,2,2.6,3.5,3.5,1.5.9,3.2,1.6,5.1,2s4,.8,6.1.9v.4c-1.5.4-2.4,1.6-2.8,3.6-3.1-.8-5.7-2-7.8-3.5-2.1-1.5-3.7-3.7-4.7-6.6l.5-.3ZM30.9,45.4v1.1h-7.4v-1.1h7.4ZM28.5,45.4l1.9-1.9,3.5,2.8c-.1.1-.3.2-.6.3s-.5.1-.8.2v2.2c0,.2,0,.3,0,.4,0,0,.1.1.3.1h1.2c.1,0,.2,0,.3,0,.1,0,.2,0,.4,0s.3,0,.4,0h.5c.4.3.7.4.9.6s.3.4.3.7c0,.7-.3,1.2-.9,1.4-.6.2-1.6.4-3.1.4h-1.2c-.8,0-1.4,0-1.8-.3-.4-.2-.6-.5-.7-.9s-.2-.9-.2-1.6v-4.2h-.4Z" style="fill:#fff;"/><path d="M15.8,112.7c-.1.2-.3.3-.6.4-.3,0-.6,0-1,0-.9.6-2,1.3-3.2,1.9s-2.6,1.2-4,1.7c-1.4.5-2.9.9-4.4,1.3v-.4c1.2-.5,2.4-1.2,3.7-2s2.5-1.6,3.6-2.4c1.1-.9,2-1.6,2.6-2.4l3.4,1.9ZM30.3,107.6c.4.5.8,1,1.1,1.4.3.4.5.7.8,1-.1.3-.4.5-.9.5H3.8v-.9c0,0,24.8,0,24.8,0l1.7-2ZM13.2,93.3c0,.1-.2.2-.4.3-.2.1-.4.2-.8.2l-2.5,16.3h-2.6l2.8-18,3.5,1.2ZM13.1,102.5c.4.4.7.8,1,1.1.3.3.5.6.7.9-.1.3-.4.5-.8.5h-5l.2-.9h2.5l1.4-1.6ZM13.9,96.9c.4.4.7.8.9,1.1.2.3.5.6.6.9-.1.3-.4.5-.8.5h-4.7l.2-.9h2.4l1.4-1.5ZM17.7,92.8c-.2.2-.5.2-.9,0-.4.2-.9.3-1.5.6s-1.3.4-2,.6c-.7.2-1.4.4-2,.5l-.2-.3c.5-.3,1.1-.8,1.7-1.2s1.2-1,1.7-1.4c.5-.5,1-.8,1.3-1.1l2,2.4ZM19,102c0,.2-.2.3-.3.4-.1.1-.3.2-.6.3l-1.4,7.4h-2.2l1.6-8.4,3,.3ZM19.9,91.5l.6.4-1.6,8.1h.2l-1,1-2.4-1.3c.2-.2.5-.3.8-.6.3-.2.6-.4.8-.4l-.8,1,1.5-8.1h1.9ZM22.2,99.1l-.2.9h-4.6l.2-.9h4.5ZM21.8,90.4c0,.2-.2.4-.4.5-.2.1-.5.2-.9.3l-.2,1.1h-2.5l.3-1.8v-.5c0,0,3.6.4,3.6.4ZM23.7,92.7c.5.4.8.8,1.2,1.1.3.3.6.6.8.9-.1.3-.4.5-.8.5h-6.5l.2-.9h3.6l1.6-1.7ZM20.9,99.1l1.4-1.2,2,1.9c-.1,0-.2.2-.4.3-.2,0-.4.1-.6.2l-1.9,9.9h-2.4l2.1-10.9h-.2ZM19.8,111.5c2.2.2,4,.6,5.3,1s2.4.8,3.1,1.3c.7.5,1.2.9,1.4,1.4.2.5.3.9.1,1.3-.1.4-.4.7-.7.9-.3.2-.7.3-1.1.3-.4,0-.8-.2-1.1-.5-.3-.6-.8-1.1-1.5-1.7-.7-.6-1.5-1.2-2.4-1.8-1-.6-2.1-1.1-3.4-1.6l.2-.4ZM28,104l-.2.9h-4.4v-.9c-.1,0,4.6,0,4.6,0ZM29.1,98.3l-.2.9h-4.5v-.9c-.1,0,4.7,0,4.7,0ZM30.5,93l-.2.9h-5v-.9c0,0,5.2,0,5.2,0ZM29.2,93l1.6-1.6,2.3,2.3c-.1.1-.3.2-.4.3-.2,0-.4.1-.7.2l-3.6,15.8h-2.7l4-17.1h-.3Z" style="fill:#fff;"/><path d="M42.8,77.6c.8-.2,2.1-.5,3.7-.9s3.5-.9,5.6-1.4c2.1-.6,4.2-1.2,6.3-1.8v.4c-1.2,1-3,2.1-5.1,3.5-2.1,1.4-4.7,3-7.7,4.6-.2.6-.6,1-1,1.1l-1.8-5.6ZM55.1,64.8l2.1,2.1c.6.6,1,1.1,1.4,1.6-.1.4-.5.6-1,.6h-14.1l-.3-1.1h9.9l2-3.2ZM54.4,59.4c0,.3-.1.5-.4.7-.2.2-.6.3-1.1.4v28.8c0,1.1-.1,2.1-.4,2.9-.2.8-.8,1.5-1.6,2-.8.5-2.1.8-3.8,1,0-.8-.1-1.6-.2-2.2-.1-.6-.3-1.1-.6-1.5-.3-.4-.6-.8-1-1.1-.4-.3-1.1-.5-1.9-.6v-.6c.7,0,1.3,0,1.8.1.5,0,.9,0,1.4,0,.4,0,.8,0,.9,0,.3,0,.5,0,.6-.2s.2-.3.2-.4v-30l6.1.6ZM61.5,64.8l1.1.7v20.9l-4.2,1.7,2.2-1.7c.2,1,.3,1.9.1,2.6-.1.7-.4,1.3-.7,1.8-.3.5-.7.8-1,1l-2.9-5.2c.8-.5,1.3-.8,1.6-1.1.2-.3.3-.6.3-1.1v-19.5h3.5ZM57.1,86.1c.6-.2,1.5-.5,2.7-.9,1.1-.4,2.4-.9,3.8-1.4,1.4-.5,2.9-1.1,4.3-1.7v.4c-.3.5-1,1.2-1.8,2.1-.8.9-1.8,1.8-2.9,2.9-1.1,1-2.3,2.1-3.6,3.2l-2.5-4.7ZM63.9,64.2c0,.2-.2.3-.5.4-.2,0-.5.1-.8.2v2.2h-4.6v-4.6l5.9,1.9ZM68.9,89.5c.5.5,1,.9,1.4,1.3.4.4.8.8,1.3,1.2.4.4.8.8,1.2,1.2,0,.4-.4.6-1,.6h-12.4l-.3-1.1h7.8l2.2-3.2ZM79.2,63.6c-.6.4-1.5.4-2.7,0-1.3.3-2.9.5-4.6.8-1.8.2-3.6.4-5.5.6-1.9.2-3.8.3-5.7.3v-.5c1.5-.5,3.1-1.1,4.8-1.8s3.3-1.4,4.9-2.1c1.5-.7,2.8-1.4,3.8-2l5.1,4.7ZM75.2,70.2c.6.5,1.2,1,1.6,1.3s.9.8,1.4,1.2c.5.4,1,.8,1.4,1.2-.1.4-.5.6-1.1.6h-17.6v-1.1h11.8l2.5-3.4ZM71.6,63c-.1,1.9-.2,3.8-.2,5.7s0,3.8.3,5.6c.2,1.9.4,3.6.8,5.3s.8,3.2,1.4,4.5c.6,1.3,1.3,2.5,2.1,3.4.2.3.4.4.5.3s.3-.2.5-.5c.3-.4.6-1,.9-1.8.4-.8.7-1.6,1-2.3h.4c0,0-.7,6.2-.7,6.2.5,1.1.8,2,.9,2.7s0,1.3-.5,1.6c-.7.5-1.4.7-2.1.6-.8-.1-1.5-.4-2.2-.8-.7-.5-1.2-.9-1.6-1.4-1.4-1.7-2.5-3.6-3.3-5.8-.8-2.2-1.4-4.6-1.8-7.1-.4-2.5-.7-5.1-.8-7.8-.1-2.7-.2-5.4-.2-8.2h4.7Z" style="fill:#fff;"/><path d="M42.7,121.3c.8-.1,2-.3,3.7-.6,1.6-.3,3.5-.6,5.5-1s4.1-.8,6.2-1.3v.4c-1.2.8-2.9,1.9-5.1,3.2-2.1,1.3-4.7,2.6-7.7,4.2,0,.3-.2.5-.4.7-.2.2-.4.3-.7.4l-1.5-5.9ZM54.4,103.1c0,.3-.1.5-.4.7-.2.2-.6.3-1.1.4v28.6c0,1.2-.1,2.2-.4,3-.3.8-.8,1.5-1.7,2-.8.5-2.2.8-3.9,1,0-.9-.1-1.6-.3-2.2-.1-.6-.3-1.1-.6-1.6-.3-.4-.7-.8-1.2-1s-1.2-.5-2.1-.7v-.5c.7,0,1.4,0,1.9.1.5,0,1.1,0,1.6,0,.5,0,.9,0,1.1,0s.5,0,.6-.2.2-.3.2-.5v-29.7l6.2.6ZM55.1,108.4c.8.8,1.6,1.5,2.1,2.1.6.6,1.1,1.1,1.5,1.6-.1.4-.5.6-1,.6h-14.1l-.3-1.1h9.8l2.1-3.2ZM59.7,115.8v-1.5l5.3,1.9h-.7v6.7c0,1.3-.1,2.7-.3,4.1-.2,1.5-.7,2.9-1.4,4.3-.7,1.4-1.8,2.8-3.2,4.1-1.5,1.3-3.4,2.4-5.9,3.4l-.3-.4c1.9-1.5,3.4-3.1,4.3-4.8.9-1.7,1.6-3.5,1.9-5.3.3-1.8.4-3.6.4-5.4v-7.1ZM75,106.7c.6.6,1.2,1.1,1.7,1.5.5.4,1,.9,1.6,1.4.6.5,1,.9,1.5,1.3-.1.4-.5.6-1.1.6h-20.7l-.3-1.1h14.7l2.7-3.7ZM70.8,116.2v1.1h-8.8v-1.1h8.8ZM62.7,102.7c1.9.3,3.3.7,4.3,1.2,1,.6,1.7,1.2,2.1,1.9.4.7.5,1.3.4,2-.1.6-.4,1.2-.9,1.6s-1,.6-1.7.6-1.4-.3-2.1-.8c0-.7-.1-1.5-.4-2.2-.2-.8-.5-1.5-.9-2.2-.4-.7-.7-1.3-1.2-1.8l.3-.2ZM69.1,116.2l2.2-2.5,4.1,3.4c-.1.1-.3.2-.5.3-.2.1-.5.2-.9.3v15.3c0,.2,0,.4.1.5,0,.1.2.2.4.2h.7c.2,0,.3,0,.4,0,.1,0,.2,0,.3,0,.1,0,.2,0,.3,0,0,0,.2-.2.3-.3.1-.2.2-.6.4-1.2.2-.6.3-1.2.5-1.9.2-.7.4-1.4.6-2.2h.4v5.5c.6.3,1,.5,1.1.8.1.3.2.6.2,1,0,.8-.4,1.5-1.2,2-.8.5-2.1.7-3.8.7h-1.7c-1,0-1.7-.1-2.2-.3s-.8-.6-1-1.2-.2-1.3-.2-2.2v-18.1h-.4Z" style="fill:#fff;"/></svg>