<?xml version="1.0" encoding="UTF-8"?><svg id="Layer_1" xmlns="http://www.w3.org/2000/svg" viewBox="0 0 162.8 142.1"><path d="M8.3,96.5c0-.6,0-1-.2-1.4-.1-.4-.3-.6-.6-.8-.3-.2-.6-.3-1-.3h-.9v7.4c0,.3,0,.5,0,.8,0,.2,0,.4,0,.5.2,0,.4,0,.7,0s.4,0,.6,0v1H2.6v-.8c.3,0,.5,0,.6-.1.1,0,.3-.2.3-.5,0-.2,0-.5,0-.9v-7.3s-1,0-1,0c-.6,0-1,.2-1.3.6-.3.4-.5,1-.5,1.8h-.8v-3.3h9.1v3.3c0,0-.8,0-.8,0Z" style="fill:#fff;"/><path d="M10.5,103.7v-.8c.3,0,.5,0,.6-.1.2,0,.3-.2.3-.5,0-.2,0-.5,0-.9v-6c0-.2,0-.5,0-.7,0-.2,0-.4,0-.5-.2,0-.4,0-.6,0s-.4,0-.5,0v-1h4v.8c-.3,0-.5,0-.6.1-.2,0-.3.2-.3.4,0,.2,0,.5,0,.9v2.4h4.5v-2.5c0-.2,0-.5,0-.7,0-.2,0-.4,0-.5-.2,0-.4,0-.6,0-.2,0-.4,0-.5,0v-1h4v.8c-.3,0-.5,0-.6.1-.2,0-.3.2-.3.4,0,.2,0,.5,0,.9v6c0,.3,0,.5,0,.8,0,.2,0,.4,0,.5.2,0,.4,0,.6,0,.2,0,.4,0,.5,0v1h-4v-.8c.3,0,.5,0,.6-.1.2,0,.3-.2.3-.5,0-.2,0-.5,0-.9v-2.5h-4.5v2.6c0,.3,0,.5,0,.8,0,.2,0,.4,0,.5.2,0,.4,0,.6,0s.4,0,.5,0v1h-4Z" style="fill:#fff;"/><path d="M27.9,100c0-.4,0-.7-.2-.9-.1-.2-.3-.3-.5-.3-.2,0-.5,0-.8,0h-.6v2.8c0,.3,0,.5,0,.7s0,.4,0,.5h2.3c.3,0,.7,0,1-.2.3-.1.5-.4.7-.7s.3-.8.3-1.3h.8v3.2h-7.9v-.8c.3,0,.5,0,.6-.1.2,0,.3-.2.3-.5,0-.2,0-.5,0-.9v-6c0-.2,0-.5,0-.7,0-.2,0-.4,0-.5-.2,0-.4,0-.6,0s-.4,0-.5,0v-1h7.4v2.8c0,0-.7,0-.7,0,0-.6,0-1-.3-1.3-.2-.3-.4-.5-.7-.6-.3,0-.6-.1-.9-.1h-.8c-.3,0-.5,0-.6.1-.1,0-.3.2-.3.4s0,.5,0,.9v2.3h2.1s0-1.3,0-1.3h1v3.5h-.8Z" style="fill:#fff;"/><path d="M36.7,103.7v-.8c.3,0,.5,0,.6-.1.2,0,.3-.2.3-.5,0-.2,0-.5,0-.9v-5.9c0-.3,0-.5,0-.8,0-.2,0-.4,0-.5-.2,0-.4,0-.6,0s-.4,0-.5,0v-1c.6,0,1.3,0,1.9,0s1.3,0,2,0c1.2,0,2.1.2,2.8.6.7.4,1,1.1,1,2,0,.3,0,.6-.3.9-.2.3-.4.5-.8.8-.3.2-.7.4-1.2.5h0c1,.1,1.8.4,2.3.9s.8,1.1.8,1.8-.2,1.2-.5,1.6c-.3.4-.7.8-1.3,1-.5.2-1.2.3-1.9.3h-4.9ZM39.6,102.8c.2,0,.3,0,.5,0s.4,0,.5,0,.3,0,.4,0c.7,0,1.2-.2,1.5-.6.3-.4.5-.9.5-1.5s-.1-.9-.3-1.2c-.2-.3-.5-.5-.8-.6-.3-.1-.7-.2-1-.2h-.7c-.2,0-.4,0-.6,0v2.8c0,.3,0,.5,0,.7,0,.2,0,.4,0,.5ZM39.6,97.8h.9c.5,0,.8-.1,1.1-.3.3-.2.5-.4.6-.8s.2-.7.2-1c0-.4-.1-.8-.3-1-.2-.2-.4-.4-.7-.5-.3,0-.5-.1-.8-.1-.2,0-.4,0-.5,0-.1,0-.2.2-.3.4,0,.2-.1.5-.1.9v2.5Z" style="fill:#fff;"/><path d="M45.6,103.7v-.9c.3,0,.5,0,.7-.2.2-.2.3-.4.4-.6.1-.3.2-.6.3-.9l3-8.1h.8l3.3,8.3c0,.2.1.4.2.7,0,.3.2.6.2.8.2,0,.3,0,.5,0,.2,0,.3,0,.4,0v1h-3.8v-.8c.3,0,.5,0,.6-.2s.2-.3.1-.5,0-.4-.2-.6l-.4-1h-3.5c0,0-.3,1.1-.3,1.1,0,.2-.1.4-.2.6,0,.2-.2.4-.2.6.2,0,.4,0,.6,0s.4,0,.5,0v1h-3.1ZM48.7,99.6h2.8l-.8-2.2c-.1-.3-.2-.7-.3-1-.1-.3-.2-.7-.3-1h0c0,.2-.1.5-.2.8,0,.3-.2.7-.4,1.1l-.8,2.3Z" style="fill:#fff;"/><path d="M63.6,96.5c0-.6,0-1-.2-1.4-.1-.4-.3-.6-.6-.8-.3-.2-.6-.3-1-.3h-.9v7.4c0,.3,0,.5,0,.8,0,.2,0,.4,0,.5.2,0,.4,0,.7,0s.4,0,.6,0v1h-4.1v-.8c.3,0,.5,0,.6-.1.1,0,.3-.2.3-.5,0-.2,0-.5,0-.9v-7.3s-1,0-1,0c-.6,0-1,.2-1.3.6-.3.4-.5,1-.5,1.8h-.8v-3.3h9.1v3.3c0,0-.8,0-.8,0Z" style="fill:#fff;"/><path d="M73.7,96.5c0-.6,0-1-.2-1.4-.1-.4-.3-.6-.6-.8-.3-.2-.6-.3-1-.3h-.9v7.4c0,.3,0,.5,0,.8,0,.2,0,.4,0,.5.2,0,.4,0,.7,0s.4,0,.6,0v1h-4.1v-.8c.3,0,.5,0,.6-.1.1,0,.3-.2.3-.5,0-.2,0-.5,0-.9v-7.3s-1,0-1,0c-.6,0-1,.2-1.3.6-.3.4-.5,1-.5,1.8h-.8v-3.3h9.1v3.3c0,0-.8,0-.8,0Z" style="fill:#fff;"/><path d="M75.9,103.7v-.8c.3,0,.5,0,.6-.1.2,0,.3-.2.3-.5,0-.2,0-.5,0-.9v-6c0-.2,0-.5,0-.7,0-.2,0-.4,0-.5-.2,0-.4,0-.6,0s-.4,0-.5,0v-1h4v.8c-.3,0-.5,0-.6.1-.2,0-.3.2-.3.4,0,.2,0,.5,0,.9v6c0,.3,0,.5,0,.7s0,.4,0,.5h2.3c.6,0,1.1-.2,1.4-.6.3-.4.5-1,.5-1.9h.8v3.4h-7.9Z" style="fill:#fff;"/><path d="M90.2,100c0-.4,0-.7-.2-.9-.1-.2-.3-.3-.5-.3-.2,0-.5,0-.8,0h-.6v2.8c0,.3,0,.5,0,.7s0,.4,0,.5h2.3c.3,0,.7,0,1-.2.3-.1.5-.4.7-.7s.3-.8.3-1.3h.8v3.2h-7.9v-.8c.3,0,.5,0,.6-.1.2,0,.3-.2.3-.5,0-.2,0-.5,0-.9v-6c0-.2,0-.5,0-.7,0-.2,0-.4,0-.5-.2,0-.4,0-.6,0s-.4,0-.5,0v-1h7.4v2.8c0,0-.7,0-.7,0,0-.6,0-1-.3-1.3-.2-.3-.4-.5-.7-.6-.3,0-.6-.1-.9-.1h-.8c-.3,0-.5,0-.6.1-.1,0-.3.2-.3.4s0,.5,0,.9v2.3h2.1s0-1.3,0-1.3h1v3.5h-.8Z" style="fill:#fff;"/><path d="M104,103.9c-1,0-1.8-.2-2.4-.5-.7-.3-1.2-.7-1.6-1.3s-.7-1.1-.9-1.8c-.2-.7-.3-1.3-.3-2s.1-1.3.3-1.9c.2-.6.5-1.2,1-1.8.4-.5,1-1,1.6-1.3s1.4-.5,2.3-.5,1.7.2,2.4.5,1.2.8,1.6,1.3c.4.5.7,1.1.9,1.8.2.6.3,1.3.3,1.9s-.1,1.2-.3,1.9c-.2.6-.5,1.2-1,1.8-.4.5-1,1-1.6,1.3s-1.4.5-2.3.5ZM104.2,103c.6,0,1-.1,1.4-.4.4-.3.7-.6.9-1,.2-.4.4-.9.5-1.4.1-.5.2-1,.2-1.5s0-1.3-.2-1.9c-.1-.6-.3-1.1-.6-1.5-.3-.4-.6-.8-1-1s-.9-.4-1.5-.4c-.5,0-1,.1-1.4.4s-.7.6-.9,1c-.2.4-.4.9-.5,1.4-.1.5-.2,1-.2,1.5s0,1,.2,1.6.3,1.1.6,1.6c.3.5.6.9,1,1.2.4.3.9.4,1.5.4Z" style="fill:#fff;"/><path d="M110.8,103.7v-.8c.3,0,.5,0,.6-.1.2,0,.3-.2.3-.5,0-.2,0-.5,0-.9v-6c0-.2,0-.5,0-.7,0-.2,0-.4,0-.5-.2,0-.4,0-.6,0s-.4,0-.5,0v-1h7.3v2.8c0,0-.8,0-.8,0,0-.6,0-1-.3-1.3-.2-.3-.4-.5-.7-.6-.3,0-.6-.1-.9-.1h-.7c-.3,0-.5,0-.6.2-.1,0-.2.2-.3.5,0,.2,0,.5,0,.9v2.6h1.9v-1.3c0,0,.9,0,.9,0v3.5h-.8c0-.4,0-.7-.2-.9-.1-.2-.3-.3-.5-.4-.2,0-.5,0-.8,0h-.4v2.5c0,.3,0,.5,0,.8,0,.2,0,.4,0,.5.1,0,.3,0,.5,0,.2,0,.4,0,.5,0s.3,0,.4,0v1h-4.3Z" style="fill:#fff;"/><path d="M22.6,121.7v-.8c.3,0,.5,0,.6-.1.2,0,.3-.2.3-.5,0-.2,0-.5,0-.9v-6c0-.2,0-.5,0-.7,0-.2,0-.4,0-.5-.2,0-.4,0-.6,0s-.4,0-.5,0v-1h4v.8c-.3,0-.5,0-.6.1-.2,0-.3.2-.3.4,0,.2,0,.5,0,.9v2.4h4.5v-2.5c0-.2,0-.5,0-.7,0-.2,0-.4,0-.5-.2,0-.4,0-.6,0-.2,0-.4,0-.5,0v-1h4v.8c-.3,0-.5,0-.6.1-.2,0-.3.2-.3.4,0,.2,0,.5,0,.9v6c0,.3,0,.5,0,.8,0,.2,0,.4,0,.5.2,0,.4,0,.6,0,.2,0,.4,0,.5,0v1h-4v-.8c.3,0,.5,0,.6-.1.2,0,.3-.2.3-.5,0-.2,0-.5,0-.9v-2.5h-4.5v2.6c0,.3,0,.5,0,.8,0,.2,0,.4,0,.5.2,0,.4,0,.6,0s.4,0,.5,0v1h-4Z" style="fill:#fff;"/><path d="M39.7,121.9c-1,0-1.8-.2-2.4-.5-.7-.3-1.2-.7-1.6-1.3s-.7-1.1-.9-1.8c-.2-.7-.3-1.3-.3-2s.1-1.3.3-1.9c.2-.6.5-1.2,1-1.8.4-.5,1-1,1.6-1.3s1.4-.5,2.3-.5,1.7.2,2.4.5,1.2.8,1.6,1.3c.4.5.7,1.1.9,1.8.2.6.3,1.3.3,1.9s-.1,1.2-.3,1.9c-.2.6-.5,1.2-1,1.8-.4.5-1,1-1.6,1.3s-1.4.5-2.3.5ZM39.9,121c.6,0,1-.1,1.4-.4.4-.3.7-.6.9-1,.2-.4.4-.9.5-1.4.1-.5.2-1,.2-1.5s0-1.3-.2-1.9c-.1-.6-.3-1.1-.6-1.5-.3-.4-.6-.8-1-1s-.9-.4-1.5-.4c-.5,0-1,.1-1.4.4s-.7.6-.9,1c-.2.4-.4.9-.5,1.4-.1.5-.2,1-.2,1.5s0,1,.2,1.6.3,1.1.6,1.6c.3.5.6.9,1,1.2.4.3.9.4,1.5.4Z" style="fill:#fff;"/><path d="M54.5,121.8l-5.2-6.8c-.1-.2-.2-.3-.4-.5s-.2-.3-.4-.5h0v5.2c0,.3,0,.5,0,.8,0,.2,0,.5,0,.6.2,0,.4,0,.6,0s.4,0,.5,0v1h-3.2v-.8c.3,0,.5,0,.6-.1.1,0,.3-.2.3-.4,0-.2.1-.4.1-.7v-6.2c0-.2,0-.5,0-.7s0-.4,0-.5c-.2,0-.4,0-.6,0s-.4,0-.5,0v-1h2.2l4.9,6.4c.2.3.4.5.5.7s.3.4.4.6h0v-5.5c0-.2,0-.5,0-.7,0-.2,0-.4,0-.5-.2,0-.3,0-.6,0-.2,0-.4,0-.5,0v-1h3.2v.8c-.3,0-.5,0-.6.1-.2,0-.3.2-.3.4,0,.2,0,.5,0,.9v8.4h-1.1Z" style="fill:#fff;"/><path d="M63.1,121.9c-1.1,0-2-.2-2.7-.7s-1.3-1.1-1.8-1.9c-.4-.8-.6-1.7-.6-2.7s.1-1.4.3-2c.2-.7.5-1.3,1-1.8.4-.5,1-1,1.6-1.3.7-.3,1.4-.5,2.3-.5s.6,0,1,0c.3,0,.7.1,1,.3.3.1.7.3.9.4v-.7c0,0,1,0,1,0v3.5h-.8c0-.6-.3-1.1-.5-1.5-.3-.4-.6-.7-1-.9s-.9-.3-1.4-.3-1,.1-1.4.4-.8.6-1,1-.5.9-.7,1.4c-.2.5-.2,1.1-.2,1.7,0,.9.1,1.7.4,2.4.3.7.7,1.2,1.2,1.6.5.4,1.1.6,1.8.6s.5,0,.7,0c.3,0,.5,0,.8-.2.3,0,.5-.2.7-.3v-1.5c0-.3,0-.5,0-.8,0-.2,0-.5,0-.6-.2,0-.4,0-.6,0-.2,0-.4,0-.5,0v-1h3.8v.8c-.2,0-.4,0-.5.1s-.2.2-.3.3-.1.3-.2.5,0,.4,0,.6v2.4h-.4c-.2,0-.5,0-.8.1-.3,0-.6.2-.9.3-.3,0-.7.2-1,.3-.4,0-.8.1-1.2.1Z" style="fill:#fff;"/><path d="M74.1,121.7v-.8c.3,0,.5,0,.6-.1.2,0,.3-.2.3-.5,0-.2,0-.5,0-.9v-6c0-.2,0-.5,0-.7,0-.2,0-.4,0-.5-.2,0-.4,0-.6,0s-.4,0-.5,0v-1h4v.8c-.3,0-.5,0-.6.1-.2,0-.3.2-.3.4,0,.2,0,.5,0,.9v2.3h1.1l1.4-2.3c.2-.3.3-.5.5-.8.2-.3.4-.5.5-.6-.2,0-.3,0-.5,0-.2,0-.3,0-.5,0v-1h3.5v.8c-.3,0-.6,0-.8.1-.3,0-.6.2-.8.5-.3.2-.6.6-.9,1.1l-1.5,2.3c.2.1.4.3.6.5.2.2.3.4.5.5l1.6,2.2c.3.4.5.6.7.9.2.2.4.4.7.5.2.1.4.2.7.2v.8h-2.1c0,0-.2,0-.4-.3-.2-.2-.4-.4-.6-.6-.2-.2-.4-.5-.5-.7l-1.6-2.2c-.2-.2-.3-.4-.5-.6s-.3-.4-.5-.5h-.6v2.6c0,.3,0,.5,0,.8,0,.2,0,.4,0,.5.2,0,.4,0,.6,0s.4,0,.5,0v1h-4Z" style="fill:#fff;"/><path d="M89.4,121.9c-1,0-1.8-.2-2.4-.5-.7-.3-1.2-.7-1.6-1.3s-.7-1.1-.9-1.8c-.2-.7-.3-1.3-.3-2s.1-1.3.3-1.9c.2-.6.5-1.2,1-1.8.4-.5,1-1,1.6-1.3s1.4-.5,2.3-.5,1.7.2,2.4.5,1.2.8,1.6,1.3c.4.5.7,1.1.9,1.8.2.6.3,1.3.3,1.9s-.1,1.2-.3,1.9c-.2.6-.5,1.2-1,1.8-.4.5-1,1-1.6,1.3s-1.4.5-2.3.5ZM89.5,121c.6,0,1-.1,1.4-.4.4-.3.7-.6.9-1,.2-.4.4-.9.5-1.4.1-.5.2-1,.2-1.5s0-1.3-.2-1.9c-.1-.6-.3-1.1-.6-1.5-.3-.4-.6-.8-1-1s-.9-.4-1.5-.4c-.5,0-1,.1-1.4.4s-.7.6-.9,1c-.2.4-.4.9-.5,1.4-.1.5-.2,1-.2,1.5s0,1,.2,1.6.3,1.1.6,1.6c.3.5.6.9,1,1.2.4.3.9.4,1.5.4Z" style="fill:#fff;"/><path d="M104.2,121.8l-5.2-6.8c-.1-.2-.2-.3-.4-.5s-.2-.3-.4-.5h0v5.2c0,.3,0,.5,0,.8,0,.2,0,.5,0,.6.2,0,.4,0,.6,0s.4,0,.5,0v1h-3.2v-.8c.3,0,.5,0,.6-.1.1,0,.3-.2.3-.4,0-.2.1-.4.1-.7v-6.2c0-.2,0-.5,0-.7s0-.4,0-.5c-.2,0-.4,0-.6,0s-.4,0-.5,0v-1h2.2l4.9,6.4c.2.3.4.5.5.7s.3.4.4.6h0v-5.5c0-.2,0-.5,0-.7,0-.2,0-.4,0-.5-.2,0-.3,0-.6,0-.2,0-.4,0-.5,0v-1h3.2v.8c-.3,0-.5,0-.6.1-.2,0-.3.2-.3.4,0,.2,0,.5,0,.9v8.4h-1.1Z" style="fill:#fff;"/><path d="M112.8,121.9c-1.1,0-2-.2-2.7-.7s-1.3-1.1-1.8-1.9c-.4-.8-.6-1.7-.6-2.7s.1-1.4.3-2c.2-.7.5-1.3,1-1.8.4-.5,1-1,1.6-1.3.7-.3,1.4-.5,2.3-.5s.6,0,1,0c.3,0,.7.1,1,.3.3.1.7.3.9.4v-.7c0,0,1,0,1,0v3.5h-.8c0-.6-.3-1.1-.5-1.5-.3-.4-.6-.7-1-.9s-.9-.3-1.4-.3-1,.1-1.4.4-.8.6-1,1-.5.9-.7,1.4c-.2.5-.2,1.1-.2,1.7,0,.9.1,1.7.4,2.4.3.7.7,1.2,1.2,1.6.5.4,1.1.6,1.8.6s.5,0,.7,0c.3,0,.5,0,.8-.2.3,0,.5-.2.7-.3v-1.5c0-.3,0-.5,0-.8,0-.2,0-.5,0-.6-.2,0-.4,0-.6,0-.2,0-.4,0-.5,0v-1h3.8v.8c-.2,0-.4,0-.5.1s-.2.2-.3.3-.1.3-.2.5,0,.4,0,.6v2.4h-.4c-.2,0-.5,0-.8.1-.3,0-.6.2-.9.3-.3,0-.7.2-1,.3-.4,0-.8.1-1.2.1Z" style="fill:#fff;"/><path d="M101.8,10c-1.8,2.7-4.3,5.1-7.6,7.1-3.2,2-6.9,3.7-10.9,4.9l-.3-.5c1.8-1,3.6-2.2,5.2-3.5,1.6-1.3,3.1-2.8,4.4-4.3s2.3-3,3.2-4.4h6v.6ZM115.1,6.2c.6.5,1.2.9,1.7,1.2.5.4,1,.8,1.5,1.2.5.4,1,.8,1.4,1.2,0,.4-.4.6-1.1.6h-34.8l-.3-1.1h29l2.5-3.2ZM115.1,4.5c-.2.2-.5.3-1,.3s-1-.1-1.7-.4c-1.7.2-3.5.5-5.7.7-2.1.2-4.3.4-6.6.5-2.3.1-4.6.2-7,.3-2.4,0-4.6,0-6.8,0v-.6c2-.3,4.1-.6,6.4-1s4.5-.9,6.7-1.3c2.2-.5,4.3-1,6.2-1.5s3.6-1,4.9-1.5l4.4,4.5ZM94.9,35.3c0,.2-.2.4-.6.6-.4.3-.9.5-1.6.7-.7.2-1.3.3-2,.3h-.7v-17.7l5.3,2.1h15.2v1.1h-15.6v12.9ZM110.4,26.9v1.1h-18.5v-1.1h18.5ZM110.4,33.1v1.1h-18.5v-1.1h18.5ZM104,18.6c0,.1-.4.4-1.1.8-.7.4-1.7.6-3,.6h-.9V4.1l5-.8v15.3ZM104.7,9.4c.7,1,1.7,1.9,2.8,2.8,1.2.8,2.4,1.5,3.8,2.1,1.4.6,2.8,1.1,4.4,1.5,1.5.4,3,.7,4.4,1v.5c-1,.2-1.8.7-2.4,1.5s-1.1,1.8-1.3,3c-1.8-.8-3.5-1.8-5.1-2.9-1.5-1.1-2.9-2.4-4.1-3.9-1.2-1.5-2.2-3.2-2.9-5.2l.4-.2ZM107.7,21.2l2.3-2.5,4.8,3.6c-.1.2-.3.3-.5.5-.3.2-.6.3-1,.4v12.4c0,.1-.2.3-.7.4-.5.2-1.1.4-1.7.5-.7.2-1.2.2-1.8.2h-.9v-15.6h-.4Z" style="fill:#fff;"/><path d="M83.3,53c1.7.3,3.1.7,4.1,1.2,1,.5,1.7,1.1,2,1.8.4.6.5,1.3.4,1.9,0,.6-.3,1.1-.8,1.5-.4.4-.9.6-1.6.6-.6,0-1.3-.2-2-.7,0-.7-.2-1.4-.5-2.1-.3-.7-.6-1.4-.9-2.1-.4-.6-.8-1.2-1.2-1.7l.3-.2ZM85.2,69c.3,0,.5,0,.6,0,.1,0,.3-.3.5-.7.2-.3.3-.6.5-.8.1-.3.3-.6.6-1.2s.6-1.3,1.1-2.3c.5-1,1.1-2.4,1.9-4.2.8-1.8,1.8-4.1,3.1-6.8l.6.2c-.2.8-.5,1.8-.8,2.8-.3,1.1-.6,2.2-.9,3.3-.3,1.1-.6,2.2-.9,3.3-.3,1-.5,2-.7,2.8-.2.8-.4,1.4-.4,1.8-.2.6-.3,1.3-.4,1.9-.1.6-.1,1.2-.1,1.7,0,.7.2,1.4.5,2,.3.6.6,1.3.8,2.1.3.8.4,1.8.3,3,0,1-.4,1.8-1,2.4-.6.6-1.4.9-2.4.9s-.9-.2-1.3-.5c-.4-.3-.7-.8-.9-1.6.3-1.4.4-2.7.5-3.9s0-2.2-.1-3.1-.4-1.4-.7-1.6c-.3-.2-.5-.4-.9-.4-.3,0-.7-.1-1.1-.2v-.7h1.8ZM86.2,44.5c1.8.3,3.2.7,4.3,1.2,1,.6,1.8,1.2,2.2,1.9.4.7.6,1.3.5,2,0,.6-.3,1.1-.7,1.5-.4.4-1,.6-1.6.6-.6,0-1.3-.2-2-.7-.1-.8-.3-1.5-.6-2.3-.3-.8-.7-1.5-1.1-2.2-.4-.7-.8-1.3-1.2-1.9l.4-.2ZM98.7,57.5h5.3v.6c-1.2,2.7-2.9,5-5.2,7-2.3,2-5,3.7-8.1,5.1l-.3-.5c2-1.6,3.6-3.4,5.1-5.6,1.4-2.2,2.5-4.4,3.3-6.6ZM92.8,57.4h20.6l2.5-3.4c.6.5,1.2,1,1.6,1.4.5.4.9.8,1.5,1.2.5.4,1,.9,1.4,1.2,0,.4-.4.6-1.1.6h-26.1l-.3-1.1ZM93.4,50.8h19.6l2.4-3.3c.6.5,1.1.9,1.5,1.3.5.4.9.8,1.4,1.2.5.4.9.9,1.3,1.2-.1.4-.5.6-1.1.6h-24.8l-.3-1.1ZM97.2,63.2v-1.9h0c0,0,5.4,1.9,5.4,1.9h-.5v11.7c0,.3.1.6.3.7.2.1.7.2,1.4.2h7c.7,0,1.2,0,1.5,0,.3,0,.6,0,.8-.2s.4-.2.5-.4c.3-.3.6-.9.9-1.6.3-.8.7-1.7,1.1-2.8h.4v4.5c.8.3,1.3.5,1.6.8.2.3.4.7.4,1.1s-.1,1-.4,1.3c-.3.4-.8.7-1.5.9-.7.2-1.7.4-3,.5-1.3.1-2.9.2-4.9.2h-5c-1.5,0-2.7-.1-3.6-.3s-1.4-.6-1.8-1.2c-.3-.6-.5-1.5-.5-2.6v-12.8ZM98.4,44.5l6.1.5c0,.3-.1.5-.4.7-.2.2-.6.3-1.1.4v11.8h-4.6v-13.4ZM100,63.2h9.8v1.1h-9.8v-1.1ZM100,69h9.8v1.1h-9.8v-1.1ZM107.1,44.5l6.3.5c0,.3-.1.5-.4.7s-.6.3-1.1.4v11.8h-4.8v-13.4ZM107.7,63.2h-.4l2-2.1,4.3,3.1c-.1.1-.3.3-.5.4-.2.1-.5.2-.8.3v6.3c0,0-.2.2-.7.3-.4.1-1,.3-1.5.4s-1.1.2-1.6.2h-.8v-8.8ZM109.4,57.5c.7,1.1,1.7,2.2,2.9,3.1,1.2.9,2.5,1.7,3.9,2.3,1.4.7,2.9,1.1,4.3,1.5v.4c-2,.5-3.3,2.1-3.8,4.7-2-1.2-3.6-2.9-4.8-4.8-1.2-2-2.2-4.3-2.9-7l.4-.2Z" style="fill:#fff;"/><path d="M140.1,19.5c0,.2-.2.4-.5.6-.2.1-.6.2-1.1.2-1,2.6-2.1,5-3.3,7.2s-2.6,4.1-4.1,5.9c-1.5,1.7-3.2,3.3-5,4.6l-.4-.3c1-1.6,2-3.6,2.9-5.8s1.8-4.6,2.6-7c.8-2.5,1.4-5,1.9-7.5l6.9,2.2ZM136.9,28.8c0,.2-.2.3-.4.5-.2.1-.5.2-.8.3v23.2c0,.1-.2.3-.6.5-.4.2-.9.4-1.5.6-.6.2-1.3.3-1.9.3h-.9v-24.4l2-2.5,4.3,1.6ZM158.1,33.3c.6.5,1.2,1,1.7,1.4.5.4,1,.8,1.6,1.3.6.5,1.1.9,1.6,1.3-.1.4-.5.6-1.1.6h-25.2l-.3-1.1h19l2.8-3.6ZM151.3,37.6c-1.2,3.1-3.1,5.8-5.7,8.2-2.5,2.4-5.5,4.4-9,6l-.3-.4c1.4-1.2,2.7-2.6,3.9-4.2,1.2-1.6,2.2-3.3,3-5,.9-1.8,1.5-3.5,2-5.2h6.1v.6ZM145,32.6c0,.2-.2.4-.6.6s-1,.5-1.6.7c-.7.2-1.4.3-2.1.3h-.7v-16.1l5.3,2h12v1.1h-12.2v11.4ZM157,30.3v1.1h-14.2v-1.1h14.2ZM152.4,52.8c0,.1-.2.3-.5.5-.3.2-.8.4-1.4.6-.6.2-1.4.3-2.2.3h-.9v-23.3h5.1v21.9ZM152.3,37.1c.8,1.5,1.7,2.8,3,4.1,1.2,1.2,2.6,2.3,4,3.2,1.5.9,2.9,1.7,4.3,2.2v.4c-1,.2-1.8.7-2.5,1.5-.7.8-1.2,1.8-1.5,3-1.3-1.1-2.4-2.3-3.4-3.7s-1.8-3-2.5-4.8c-.7-1.8-1.3-3.7-1.8-5.8l.4-.2ZM154.3,20.1l2.3-2.6,4.9,3.7c-.1.2-.3.4-.6.5-.3.2-.6.3-1.1.4v9.9c0,0-.2.2-.7.4-.5.2-1.1.4-1.7.5-.7.2-1.3.2-1.8.2h-.9v-13h-.4Z" style="fill:#fff;"/><path d="M138.5,72.2c0,.2-.2.3-.4.4s-.6.2-1.1.1c-.7,1.2-1.6,2.5-2.7,3.9-1.1,1.4-2.2,2.8-3.5,4.1-1.3,1.4-2.6,2.6-4.1,3.7l-.4-.4c1-1.4,1.9-3,2.7-4.8.9-1.8,1.6-3.5,2.3-5.3s1.2-3.3,1.6-4.6l5.6,2.8ZM137.7,64.2c0,.2-.2.3-.4.4-.2.1-.6.2-1.1.1-.7.9-1.5,1.8-2.5,2.8-1,1-2,2-3.2,2.9-1.2,1-2.3,1.8-3.6,2.6l-.4-.4c.7-1.1,1.4-2.3,2.1-3.7.7-1.4,1.3-2.7,1.9-4s1-2.5,1.3-3.5l5.8,2.7ZM136.2,77.8c0,.2-.2.3-.4.4s-.5.2-.8.3v18.6c0,0-.2.2-.6.4s-.8.4-1.4.5c-.6.2-1.1.2-1.7.2h-.9v-19.5l1.9-2.5,4,1.5ZM141.8,85.2c-.1.5-.3,1.2-.4,2-.2.8-.4,1.6-.6,2.5-.2.8-.4,1.5-.5,2.1h.3l-1.6,1.8-3.9-2.4c.3-.3.6-.5,1.1-.7.4-.2.9-.4,1.2-.5l-1.2,1.4c.2-.5.3-1.2.5-2s.4-1.6.5-2.3.3-1.4.3-1.8h4.1ZM150.1,82.2c.7.7,1.3,1.2,1.9,1.7.5.5.9.9,1.3,1.3,0,.4-.4.6-1,.6h-16.4l-.3-1.1h12.7l1.8-2.5ZM152.3,69.3c.7.7,1.3,1.3,1.7,1.7.5.5.9.9,1.2,1.3-.1.4-.4.6-1,.6h-17.4l-.3-1.1h14.2l1.6-2.6ZM148.7,66.4v1.1h-11.3l-.4-1.1h11.7ZM142.2,81.8c0,0-.2.2-.6.4s-.8.4-1.4.6c-.6.2-1.1.3-1.7.3h-.6v-9.7l4.4,1.8h6.2v1.1h-6.4v5.6ZM150.7,87.9c.9.7,1.6,1.3,2.2,1.8.6.5,1.1,1,1.6,1.4-.1.4-.5.6-1.1.6h-14.9v-1.1h9.9l2.1-2.8ZM146.3,62.5c0,.3-.2.6-.4.8-.2.2-.6.3-1,.4-.1.9-.2,1.8-.4,2.9-.2,1.1-.3,2.1-.5,3.1-.2,1-.3,1.9-.4,2.7h-4.3c.2-.8.3-1.8.5-3,.2-1.2.4-2.4.5-3.7.2-1.3.3-2.5.4-3.7l5.5.6ZM148.5,80.2v1.1h-8.6v-1.1h8.6ZM147.5,97.1c0,.1-.3.3-1,.6-.6.3-1.5.4-2.7.4h-.8v-17.5h4.5v16.5ZM146.5,66.4l2-2.1,4,3c-.1.2-.3.3-.6.4s-.6.3-1,.3v4.1h-4v-5.8h-.4ZM146.6,75.1l1.9-2,3.9,2.9c0,.1-.2.3-.4.4-.2.1-.5.2-.8.3v4.7c0,0-.2.2-.6.4-.4.2-.9.3-1.4.4-.5.1-1,.2-1.5.2h-.7v-7.3h-.4ZM160.1,92.8c0,1-.1,1.9-.4,2.7-.3.8-.8,1.4-1.6,1.9-.8.5-2.1.8-3.8.9,0-.7,0-1.3-.2-1.9-.1-.6-.3-1-.6-1.3-.3-.3-.6-.6-1.1-.9-.5-.2-1.2-.4-2.1-.6v-.5c.8,0,1.4,0,1.9,0,.5,0,1,0,1.5,0,.5,0,.8,0,1,0,.3,0,.5,0,.6-.2.1-.1.2-.3.2-.5v-18.2h4.6v18.3ZM158.4,62.5c1,.7,1.8,1.4,2.4,1.9.6.5,1.2,1,1.7,1.5,0,.4-.4.6-1.1.6h-9l-.3-1.1h4l2.3-2.9ZM159.6,71.4c.9.8,1.7,1.4,2.4,2,.6.5,1.2,1.1,1.7,1.6-.1.4-.5.6-1.1.6h-10.1l-.3-1.1h5.1l2.3-3.1Z" style="fill:#fff;"/><path d="M126.4,133.7h16.3l2.3-3c1,.8,1.8,1.4,2.5,2,.7.5,1.3,1.1,1.9,1.5,0,.2-.2.4-.4.5-.2.1-.4.2-.7.2h-21.6l-.3-1.1ZM127.7,108v-1.6l4.1,1.6h-.5v7.6c0,.1-.3.3-.8.6-.5.3-1.3.4-2.2.4h-.6v-8.7ZM128.2,117.9v-1.9l5,1.9h-.5v12.9c0,.2-.3.4-1,.8-.6.4-1.5.5-2.7.5h-.8v-14.2ZM129.4,108h5.2v1.1h-5.2v-1.1ZM129.4,113.6h5.2v1.1h-5.2v-1.1ZM130.7,117.9h13.5v1.1h-13.5v-1.1ZM130.7,123.2h13.5v1.1h-13.5v-1.1ZM130.7,128.8h13.5v1.1h-13.5v-1.1ZM132.9,108h-.4l1.7-1.8,3.5,2.7c-.1.1-.3.2-.5.4s-.5.2-.8.3v5.7c0,0-.2.2-.5.4-.4.2-.8.3-1.2.4-.5.1-.9.2-1.2.2h-.6v-8.2ZM134.9,117.9h4.8v22.7c0,.1-.4.3-1.1.7s-1.6.5-2.8.5h-.9v-23.8ZM138,108v-1.6l4.2,1.6h-.5v7.6c0,.1-.3.3-.8.6-.5.3-1.3.4-2.2.4h-.7v-8.7ZM139.9,108h5.2v1.1h-5.2v-1.1ZM139.9,113.6h5.2v1.1h-5.2v-1.1ZM142,117.9h-.4l2.1-2.3,4.3,3.3c-.1.1-.3.3-.5.4-.2.1-.6.3-.9.3v10.3c0,.1-.2.3-.6.5s-.9.4-1.5.6-1.1.3-1.7.3h-.8v-13.3ZM143.4,108h-.4l1.7-1.8,3.7,2.8c-.1.1-.3.3-.5.4-.2.1-.5.2-.8.3v5.6c0,0-.2.2-.5.4s-.8.3-1.3.4c-.5.1-.9.2-1.3.2h-.6v-8.2ZM157.6,119.4l5.7,2.1c-.1.2-.3.4-.5.5s-.6.2-1.1.2c-1,2.3-2.2,4.7-3.8,7.1s-3.5,4.7-5.8,6.8-5,3.9-8.2,5.3l-.4-.5c1.9-1.4,3.6-2.9,5.1-4.6,1.5-1.7,2.8-3.5,4-5.4s2.1-3.8,3-5.8c.8-2,1.5-3.9,1.9-5.7ZM146.7,118.5l9.6-1.4,2-3.4c1.1.6,2.1,1.1,2.8,1.6s1.4.9,2,1.3c0,.2,0,.4-.3.5s-.4.2-.7.3l-15.1,2.1-.4-1.1ZM149.1,105.6l6.4.7c0,.3-.1.5-.4.7-.2.2-.6.3-1.1.4,0,2.7,0,5.3,0,7.9s.3,5.1.6,7.5c.3,2.4.9,4.6,1.6,6.7.7,2.1,1.7,3.8,3,5.3.2.3.4.5.6.4.2,0,.3-.2.5-.6.3-.5.7-1.2,1.1-2.1.5-.9.9-1.8,1.2-2.7h.4c0,.1-.9,7.1-.9,7.1.6,1.4,1,2.4,1.1,3.2.1.8,0,1.4-.5,1.7-.5.4-1.2.6-1.8.6-.7,0-1.3-.2-1.9-.5-.6-.3-1.2-.7-1.7-1.1-.5-.4-1-.9-1.3-1.4-1.6-2.1-2.8-4.4-3.8-7-.9-2.5-1.6-5.2-2-8.1s-.7-5.9-.9-9c-.1-3.2-.2-6.4-.2-9.8ZM155.5,107.5c1.7.2,3,.6,3.9,1.1.9.5,1.6,1.1,1.9,1.7.4.6.5,1.2.4,1.8,0,.6-.3,1-.8,1.4-.4.4-.9.6-1.5.6s-1.2-.2-1.9-.7c0-.6-.1-1.3-.4-2-.2-.7-.5-1.3-.9-2s-.8-1.1-1.2-1.6l.3-.3Z" style="fill:#fff;"/></svg>