<?xml version="1.0" encoding="UTF-8"?><svg id="Layer_1" xmlns="http://www.w3.org/2000/svg" viewBox="0 0 181.8 119.8"><path d="M14.1,56.9v-.8c.3,0,.5,0,.6-.1.2,0,.3-.2.3-.5,0-.2,0-.5,0-.9v-6c0-.2,0-.5,0-.7,0-.2,0-.4,0-.5-.2,0-.4,0-.6,0s-.4,0-.5,0v-1h4v.8c-.3,0-.5,0-.6.1-.2,0-.3.2-.3.4,0,.2,0,.5,0,.9v2.4h4.5v-2.5c0-.2,0-.5,0-.7,0-.2,0-.4,0-.5-.2,0-.4,0-.6,0-.2,0-.4,0-.5,0v-1h4v.8c-.3,0-.5,0-.6.1-.2,0-.3.2-.3.4,0,.2,0,.5,0,.9v6c0,.3,0,.5,0,.8,0,.2,0,.4,0,.5.2,0,.4,0,.6,0,.2,0,.4,0,.5,0v1h-4v-.8c.3,0,.5,0,.6-.1.2,0,.3-.2.3-.5,0-.2,0-.5,0-.9v-2.5h-4.5v2.6c0,.3,0,.5,0,.8,0,.2,0,.4,0,.5.2,0,.4,0,.6,0s.4,0,.5,0v1h-4Z" style="fill:#fff;"/><path d="M31.3,57.1c-1,0-1.8-.2-2.4-.5-.7-.3-1.2-.7-1.6-1.3s-.7-1.1-.9-1.8c-.2-.7-.3-1.3-.3-2s.1-1.3.3-1.9c.2-.6.5-1.2,1-1.8.4-.5,1-1,1.6-1.3s1.4-.5,2.3-.5,1.7.2,2.4.5,1.2.8,1.6,1.3c.4.5.7,1.1.9,1.8.2.6.3,1.3.3,1.9s-.1,1.2-.3,1.9c-.2.6-.5,1.2-1,1.8-.4.5-1,1-1.6,1.3s-1.4.5-2.3.5ZM31.4,56.2c.6,0,1-.1,1.4-.4.4-.3.7-.6.9-1,.2-.4.4-.9.5-1.4.1-.5.2-1,.2-1.5s0-1.3-.2-1.9c-.1-.6-.3-1.1-.6-1.5-.3-.4-.6-.8-1-1s-.9-.4-1.5-.4c-.5,0-1,.1-1.4.4s-.7.6-.9,1c-.2.4-.4.9-.5,1.4-.1.5-.2,1-.2,1.5s0,1,.2,1.6.3,1.1.6,1.6c.3.5.6.9,1,1.2.4.3.9.4,1.5.4Z" style="fill:#fff;"/><path d="M46,57.1l-5.2-6.8c-.1-.2-.2-.3-.4-.5s-.2-.3-.4-.5h0v5.2c0,.3,0,.5,0,.8,0,.2,0,.5,0,.6.2,0,.4,0,.6,0s.4,0,.5,0v1h-3.2v-.8c.3,0,.5,0,.6-.1.1,0,.3-.2.3-.4,0-.2.1-.4.1-.7v-6.2c0-.2,0-.5,0-.7s0-.4,0-.5c-.2,0-.4,0-.6,0s-.4,0-.5,0v-1h2.2l4.9,6.4c.2.3.4.5.5.7s.3.4.4.6h0v-5.5c0-.2,0-.5,0-.7,0-.2,0-.4,0-.5-.2,0-.3,0-.6,0-.2,0-.4,0-.5,0v-1h3.2v.8c-.3,0-.5,0-.6.1-.2,0-.3.2-.3.4,0,.2,0,.5,0,.9v8.4h-1.1Z" style="fill:#fff;"/><path d="M54.6,57.1c-1.1,0-2-.2-2.7-.7s-1.3-1.1-1.8-1.9c-.4-.8-.6-1.7-.6-2.7s.1-1.4.3-2c.2-.7.5-1.3,1-1.8.4-.5,1-1,1.6-1.3.7-.3,1.4-.5,2.3-.5s.6,0,1,0c.3,0,.7.1,1,.3.3.1.7.3.9.4v-.7c0,0,1,0,1,0v3.5h-.8c0-.6-.3-1.1-.5-1.5-.3-.4-.6-.7-1-.9s-.9-.3-1.4-.3-1,.1-1.4.4-.8.6-1,1-.5.9-.7,1.4c-.2.5-.2,1.1-.2,1.7,0,.9.1,1.7.4,2.4.3.7.7,1.2,1.2,1.6.5.4,1.1.6,1.8.6s.5,0,.7,0c.3,0,.5,0,.8-.2.3,0,.5-.2.7-.3v-1.5c0-.3,0-.5,0-.8,0-.2,0-.5,0-.6-.2,0-.4,0-.6,0-.2,0-.4,0-.5,0v-1h3.8v.8c-.2,0-.4,0-.5.1s-.2.2-.3.3-.1.3-.2.5,0,.4,0,.6v2.4h-.4c-.2,0-.5,0-.8.1-.3,0-.6.2-.9.3-.3,0-.7.2-1,.3-.4,0-.8.1-1.2.1Z" style="fill:#fff;"/><path d="M65.6,56.9v-.8c.3,0,.5,0,.6-.1.2,0,.3-.2.3-.5,0-.2,0-.5,0-.9v-6c0-.2,0-.5,0-.7,0-.2,0-.4,0-.5-.2,0-.4,0-.6,0s-.4,0-.5,0v-1h4v.8c-.3,0-.5,0-.6.1-.2,0-.3.2-.3.4,0,.2,0,.5,0,.9v2.3h1.1l1.4-2.3c.2-.3.3-.5.5-.8.2-.3.4-.5.5-.6-.2,0-.3,0-.5,0-.2,0-.3,0-.5,0v-1h3.5v.8c-.3,0-.6,0-.8.1-.3,0-.6.2-.8.5-.3.2-.6.6-.9,1.1l-1.5,2.3c.2.1.4.3.6.5.2.2.3.4.5.5l1.6,2.2c.3.4.5.6.7.9.2.2.4.4.7.5.2.1.4.2.7.2v.8h-2.1c0,0-.2,0-.4-.3-.2-.2-.4-.4-.6-.6-.2-.2-.4-.5-.5-.7l-1.6-2.2c-.2-.2-.3-.4-.5-.6s-.3-.4-.5-.5h-.6v2.6c0,.3,0,.5,0,.8,0,.2,0,.4,0,.5.2,0,.4,0,.6,0s.4,0,.5,0v1h-4Z" style="fill:#fff;"/><path d="M80.9,57.1c-1,0-1.8-.2-2.4-.5-.7-.3-1.2-.7-1.6-1.3s-.7-1.1-.9-1.8c-.2-.7-.3-1.3-.3-2s.1-1.3.3-1.9c.2-.6.5-1.2,1-1.8.4-.5,1-1,1.6-1.3s1.4-.5,2.3-.5,1.7.2,2.4.5,1.2.8,1.6,1.3c.4.5.7,1.1.9,1.8.2.6.3,1.3.3,1.9s-.1,1.2-.3,1.9c-.2.6-.5,1.2-1,1.8-.4.5-1,1-1.6,1.3s-1.4.5-2.3.5ZM81.1,56.2c.6,0,1-.1,1.4-.4.4-.3.7-.6.9-1,.2-.4.4-.9.5-1.4.1-.5.2-1,.2-1.5s0-1.3-.2-1.9c-.1-.6-.3-1.1-.6-1.5-.3-.4-.6-.8-1-1s-.9-.4-1.5-.4c-.5,0-1,.1-1.4.4s-.7.6-.9,1c-.2.4-.4.9-.5,1.4-.1.5-.2,1-.2,1.5s0,1,.2,1.6.3,1.1.6,1.6c.3.5.6.9,1,1.2.4.3.9.4,1.5.4Z" style="fill:#fff;"/><path d="M95.7,57.1l-5.2-6.8c-.1-.2-.2-.3-.4-.5s-.2-.3-.4-.5h0v5.2c0,.3,0,.5,0,.8,0,.2,0,.5,0,.6.2,0,.4,0,.6,0s.4,0,.5,0v1h-3.2v-.8c.3,0,.5,0,.6-.1.1,0,.3-.2.3-.4,0-.2.1-.4.1-.7v-6.2c0-.2,0-.5,0-.7s0-.4,0-.5c-.2,0-.4,0-.6,0s-.4,0-.5,0v-1h2.2l4.9,6.4c.2.3.4.5.5.7s.3.4.4.6h0v-5.5c0-.2,0-.5,0-.7,0-.2,0-.4,0-.5-.2,0-.3,0-.6,0-.2,0-.4,0-.5,0v-1h3.2v.8c-.3,0-.5,0-.6.1-.2,0-.3.2-.3.4,0,.2,0,.5,0,.9v8.4h-1.1Z" style="fill:#fff;"/><path d="M104.3,57.1c-1.1,0-2-.2-2.7-.7s-1.3-1.1-1.8-1.9c-.4-.8-.6-1.7-.6-2.7s.1-1.4.3-2c.2-.7.5-1.3,1-1.8.4-.5,1-1,1.6-1.3.7-.3,1.4-.5,2.3-.5s.6,0,1,0c.3,0,.7.1,1,.3.3.1.7.3.9.4v-.7c0,0,1,0,1,0v3.5h-.8c0-.6-.3-1.1-.5-1.5-.3-.4-.6-.7-1-.9s-.9-.3-1.4-.3-1,.1-1.4.4-.8.6-1,1-.5.9-.7,1.4c-.2.5-.2,1.1-.2,1.7,0,.9.1,1.7.4,2.4.3.7.7,1.2,1.2,1.6.5.4,1.1.6,1.8.6s.5,0,.7,0c.3,0,.5,0,.8-.2.3,0,.5-.2.7-.3v-1.5c0-.3,0-.5,0-.8,0-.2,0-.5,0-.6-.2,0-.4,0-.6,0-.2,0-.4,0-.5,0v-1h3.8v.8c-.2,0-.4,0-.5.1s-.2.2-.3.3-.1.3-.2.5,0,.4,0,.6v2.4h-.4c-.2,0-.5,0-.8.1-.3,0-.6.2-.9.3-.3,0-.7.2-1,.3-.4,0-.8.1-1.2.1Z" style="fill:#fff;"/><path d="M118.9,47.2c-.3,0-.5,0-.6.1-.2,0-.3.2-.3.4,0,.2,0,.4,0,.7v4c0,.6,0,1.1.2,1.6.1.4.3.8.5,1.1.2.3.5.5.8.7.3.2.7.2,1.1.2.6,0,1.1-.1,1.5-.4.4-.3.7-.7.9-1.2.2-.5.3-1.2.3-1.9v-4c0-.2,0-.5,0-.7,0-.2,0-.4,0-.5-.2,0-.4,0-.6,0s-.4,0-.5,0v-1h3.2v.8c-.3,0-.5,0-.6.1s-.3.2-.3.4c0,.2,0,.5,0,.9v3.7c0,.8-.1,1.5-.3,2.1-.2.6-.5,1.1-.8,1.5-.4.4-.8.7-1.3.9-.5.2-1.1.3-1.7.3s-1.5-.1-2.1-.3c-.6-.2-1-.6-1.3-1s-.6-1-.7-1.5c-.1-.6-.2-1.3-.2-2v-3.4c0-.3,0-.5,0-.8,0-.3,0-.5,0-.7-.2,0-.4,0-.6,0-.2,0-.4,0-.5,0v-1h4v.8Z" style="fill:#fff;"/><path d="M135,57.1l-5.2-6.8c-.1-.2-.2-.3-.4-.5s-.2-.3-.4-.5h0v5.2c0,.3,0,.5,0,.8,0,.2,0,.5,0,.6.2,0,.4,0,.6,0s.4,0,.5,0v1h-3.2v-.8c.3,0,.5,0,.6-.1.1,0,.3-.2.3-.4,0-.2.1-.4.1-.7v-6.2c0-.2,0-.5,0-.7s0-.4,0-.5c-.2,0-.4,0-.6,0s-.4,0-.5,0v-1h2.2l4.9,6.4c.2.3.4.5.5.7s.3.4.4.6h0v-5.5c0-.2,0-.5,0-.7,0-.2,0-.4,0-.5-.2,0-.3,0-.6,0-.2,0-.4,0-.5,0v-1h3.2v.8c-.3,0-.5,0-.6.1-.2,0-.3.2-.3.4,0,.2,0,.5,0,.9v8.4h-1.1Z" style="fill:#fff;"/><path d="M138.8,56.1c.3,0,.5,0,.6-.1.2,0,.3-.2.3-.5,0-.2,0-.5,0-.9v-6c0-.2,0-.5,0-.7,0-.2,0-.4,0-.5-.2,0-.4,0-.6,0s-.4,0-.5,0v-1h4.1c1,0,1.8.1,2.5.4.7.3,1.3.6,1.8,1.1.5.5.9,1,1.1,1.7s.4,1.3.4,2-.1,1.3-.3,1.9c-.2.6-.6,1.2-1,1.7-.5.5-1.1.9-1.8,1.2s-1.6.5-2.6.5h-4.2v-.8ZM141.7,54.7c0,.3,0,.5,0,.8,0,.2,0,.4,0,.5.2,0,.3,0,.5,0,.2,0,.4,0,.6,0,.2,0,.3,0,.4,0,.6,0,1.1-.1,1.5-.3.4-.2.8-.5,1.1-.9.3-.4.5-.8.7-1.3.1-.5.2-1,.2-1.6,0-1-.2-1.8-.5-2.5-.3-.7-.7-1.2-1.3-1.5-.6-.3-1.3-.5-2.1-.5-.3,0-.5,0-.7.1s-.3.2-.3.5c0,.2,0,.5,0,.9v6Z" style="fill:#fff;"/><path d="M155.3,53.2c0-.4,0-.7-.2-.9-.1-.2-.3-.3-.5-.3-.2,0-.5,0-.8,0h-.6v2.8c0,.3,0,.5,0,.7s0,.4,0,.5h2.3c.3,0,.7,0,1-.2.3-.1.5-.4.7-.7s.3-.8.3-1.3h.8v3.2h-7.9v-.8c.3,0,.5,0,.6-.1.2,0,.3-.2.3-.5,0-.2,0-.5,0-.9v-6c0-.2,0-.5,0-.7,0-.2,0-.4,0-.5-.2,0-.4,0-.6,0s-.4,0-.5,0v-1h7.4v2.8c0,0-.7,0-.7,0,0-.6,0-1-.3-1.3-.2-.3-.4-.5-.7-.6-.3,0-.6-.1-.9-.1h-.8c-.3,0-.5,0-.6.1-.1,0-.3.2-.3.4s0,.5,0,.9v2.3h2.1s0-1.3,0-1.3h1v3.5h-.8Z" style="fill:#fff;"/><path d="M159.8,56.9v-.8c.3,0,.5,0,.6-.1.2,0,.3-.2.3-.5,0-.2,0-.5,0-.9v-6c0-.2,0-.5,0-.7,0-.2,0-.4,0-.5-.2,0-.4,0-.6,0s-.4,0-.5,0v-1c.7,0,1.3,0,2,0s1.3,0,2,0,1.7.1,2.3.3,1.1.5,1.4,1c.3.4.5,1,.5,1.7,0,.4-.1.8-.3,1.2-.2.4-.5.7-.9,1-.4.3-.9.5-1.6.7.2,0,.4.2.5.4.2.2.3.4.5.6l.8,1.2c.2.3.4.6.6.8.2.2.3.4.5.5.2.1.4.2.6.2v.8h-2.3c-.2-.2-.4-.4-.6-.6-.2-.2-.4-.5-.6-.9l-1.1-1.7c-.1-.2-.3-.4-.4-.6-.1-.2-.2-.3-.4-.5-.2,0-.3,0-.4,0s-.3,0-.4,0v2c0,.3,0,.5,0,.8,0,.2,0,.4,0,.5.1,0,.2,0,.4,0,.2,0,.3,0,.5,0,.2,0,.3,0,.4,0v1h-4.1ZM163.6,51.7c.6,0,1,0,1.4-.3.4-.2.6-.4.8-.8.2-.3.3-.8.3-1.3s0-.8-.2-1.1c-.1-.3-.3-.5-.5-.6-.2-.1-.5-.3-.7-.3-.3,0-.5,0-.8,0s-.5,0-.6.1c-.2,0-.3.2-.3.4,0,.2,0,.5,0,.8v3c.1,0,.2,0,.4,0s.3,0,.4,0Z" style="fill:#fff;"/><path d="M2,75.1c-.4,0-.7,0-1-.2-.3-.1-.5-.3-.7-.5-.2-.2-.3-.5-.3-.7s0-.5.2-.8c.2-.2.4-.3.7-.3.3,0,.6,0,.7.3.1.2.2.4.2.6,0,0,0,.2,0,.2,0,0,0,.2,0,.2,0,0,.1.2.2.2s.2,0,.2,0c.2,0,.4-.1.5-.3s.2-.6.2-1v-6.2c0-.2,0-.5,0-.7,0-.2,0-.4,0-.6-.2,0-.4,0-.7,0s-.4,0-.6,0v-1h4.2v.8c-.3,0-.5,0-.6.1-.2,0-.3.2-.4.4,0,.2-.1.5-.1.8v4.5c0,1.4-.2,2.5-.7,3.1-.5.6-1.2.9-2.2.9Z" style="fill:#fff;"/><path d="M6.2,74.9v-.9c.3,0,.5,0,.7-.2.2-.2.3-.4.4-.6.1-.3.2-.6.3-.9l3-8.1h.8l3.3,8.3c0,.2.1.4.2.7,0,.3.2.6.2.8.2,0,.3,0,.5,0,.2,0,.3,0,.4,0v1h-3.8v-.8c.3,0,.5,0,.6-.2s.2-.3.1-.5,0-.4-.2-.6l-.4-1h-3.5c0,0-.3,1.1-.3,1.1,0,.2-.1.4-.2.6,0,.2-.2.4-.2.6.2,0,.4,0,.6,0s.4,0,.5,0v1h-3.1ZM9.3,70.8h2.8l-.8-2.2c-.1-.3-.2-.7-.3-1-.1-.3-.2-.7-.3-1h0c0,.2-.1.5-.2.8,0,.3-.2.7-.4,1.1l-.8,2.3Z" style="fill:#fff;"/><path d="M17.1,74.1c.3,0,.5,0,.6-.1.2,0,.3-.2.3-.5,0-.2,0-.5,0-.9v-6c0-.2,0-.5,0-.7,0-.2,0-.4,0-.5-.2,0-.4,0-.6,0s-.4,0-.5,0v-1c.6,0,1.3,0,2,0s1.3,0,2,0c.9,0,1.7.1,2.4.3s1.2.6,1.5,1.1c.4.5.5,1.1.5,1.8s0,.8-.2,1.2c-.2.4-.4.8-.8,1.1-.4.3-.8.6-1.4.8s-1.3.3-2.1.3h-.5c-.2,0-.3,0-.4,0v1.6c0,.3,0,.5,0,.8,0,.2,0,.4,0,.5.1,0,.3,0,.4,0,.2,0,.3,0,.5,0,.2,0,.3,0,.4,0v1h-4.2v-.8ZM20,70.1c.1,0,.3,0,.4,0,.1,0,.2,0,.4,0,.6,0,1,0,1.4-.3s.7-.5.9-.9c.2-.4.3-.8.3-1.4s0-.9-.2-1.2c-.1-.3-.3-.5-.6-.7-.2-.2-.5-.3-.8-.3s-.6,0-.8,0-.5,0-.6.1c-.1,0-.2.2-.3.4,0,.2,0,.5,0,.8v3.5Z" style="fill:#fff;"/><path d="M25.3,74.9v-.9c.3,0,.5,0,.7-.2.2-.2.3-.4.4-.6.1-.3.2-.6.3-.9l3-8.1h.8l3.3,8.3c0,.2.1.4.2.7,0,.3.2.6.2.8.2,0,.3,0,.5,0,.2,0,.3,0,.4,0v1h-3.8v-.8c.3,0,.5,0,.6-.2s.2-.3.1-.5,0-.4-.2-.6l-.4-1h-3.5c0,0-.3,1.1-.3,1.1,0,.2-.1.4-.2.6,0,.2-.2.4-.2.6.2,0,.4,0,.6,0s.4,0,.5,0v1h-3.1ZM28.4,70.8h2.8l-.8-2.2c-.1-.3-.2-.7-.3-1-.1-.3-.2-.7-.3-1h0c0,.2-.1.5-.2.8,0,.3-.2.7-.4,1.1l-.8,2.3Z" style="fill:#fff;"/><path d="M44.3,75.1l-5.2-6.8c-.1-.2-.2-.3-.4-.5s-.2-.3-.4-.5h0v5.2c0,.3,0,.5,0,.8,0,.2,0,.5,0,.6.2,0,.4,0,.6,0s.4,0,.5,0v1h-3.2v-.8c.3,0,.5,0,.6-.1.1,0,.3-.2.3-.4,0-.2.1-.4.1-.7v-6.2c0-.2,0-.5,0-.7s0-.4,0-.5c-.2,0-.4,0-.6,0s-.4,0-.5,0v-1h2.2l4.9,6.4c.2.3.4.5.5.7s.3.4.4.6h0v-5.5c0-.2,0-.5,0-.7,0-.2,0-.4,0-.5-.2,0-.3,0-.6,0-.2,0-.4,0-.5,0v-1h3.2v.8c-.3,0-.5,0-.6.1-.2,0-.3.2-.3.4,0,.2,0,.5,0,.9v8.4h-1.1Z" style="fill:#fff;"/><path d="M53.2,71.2c0-.4,0-.7-.2-.9-.1-.2-.3-.3-.5-.3-.2,0-.5,0-.8,0h-.6v2.8c0,.3,0,.5,0,.7s0,.4,0,.5h2.3c.3,0,.7,0,1-.2.3-.1.5-.4.7-.7s.3-.8.3-1.3h.8v3.2h-7.9v-.8c.3,0,.5,0,.6-.1.2,0,.3-.2.3-.5,0-.2,0-.5,0-.9v-6c0-.2,0-.5,0-.7,0-.2,0-.4,0-.5-.2,0-.4,0-.6,0s-.4,0-.5,0v-1h7.4v2.8c0,0-.7,0-.7,0,0-.6,0-1-.3-1.3-.2-.3-.4-.5-.7-.6-.3,0-.6-.1-.9-.1h-.8c-.3,0-.5,0-.6.1-.1,0-.3.2-.3.4s0,.5,0,.9v2.3h2.1s0-1.3,0-1.3h1v3.5h-.8Z" style="fill:#fff;"/><path d="M63.7,67.7c0-.5-.2-1-.4-1.4-.2-.4-.5-.7-.9-.9-.4-.2-.8-.3-1.3-.3s-.9.1-1.2.4c-.3.3-.5.6-.5,1s0,.6.3.9c.2.2.5.5.8.7s.8.4,1.3.6c.4.2.8.3,1.2.5.4.2.8.4,1.1.7.3.3.6.6.8.9.2.4.3.8.3,1.3s-.2,1.1-.5,1.5c-.3.4-.7.8-1.3,1-.6.2-1.2.4-2,.4s-.9,0-1.3-.2c-.5-.1-.9-.3-1.3-.6v.6s-1,0-1,0v-3.4s.8,0,.8,0c.1.8.4,1.5.9,1.9.5.4,1.1.7,1.9.7s.7,0,1-.2.5-.3.7-.6c.2-.2.2-.5.2-.8s-.1-.7-.4-1-.5-.5-.9-.6c-.4-.2-.8-.4-1.2-.5-.5-.2-.9-.4-1.3-.6-.4-.2-.8-.5-1.1-.7-.3-.3-.5-.6-.7-1-.2-.4-.3-.8-.3-1.3s0-.6.2-.9c.1-.3.3-.6.5-.9.3-.3.6-.5,1-.7.4-.2,1-.3,1.6-.3s.8,0,1.3.2c.5.1.9.3,1.3.6v-.6c0,0,1,0,1,0v3.4h-.8Z" style="fill:#fff;"/><path d="M71.9,71.2c0-.4,0-.7-.2-.9-.1-.2-.3-.3-.5-.3-.2,0-.5,0-.8,0h-.6v2.8c0,.3,0,.5,0,.7s0,.4,0,.5h2.3c.3,0,.7,0,1-.2.3-.1.5-.4.7-.7s.3-.8.3-1.3h.8v3.2h-7.9v-.8c.3,0,.5,0,.6-.1.2,0,.3-.2.3-.5,0-.2,0-.5,0-.9v-6c0-.2,0-.5,0-.7,0-.2,0-.4,0-.5-.2,0-.4,0-.6,0s-.4,0-.5,0v-1h7.4v2.8c0,0-.7,0-.7,0,0-.6,0-1-.3-1.3-.2-.3-.4-.5-.7-.6-.3,0-.6-.1-.9-.1h-.8c-.3,0-.5,0-.6.1-.1,0-.3.2-.3.4s0,.5,0,.9v2.3h2.1s0-1.3,0-1.3h1v3.5h-.8Z" style="fill:#fff;"/><path d="M85.8,75.1c-1,0-1.8-.2-2.4-.5-.7-.3-1.2-.7-1.6-1.3s-.7-1.1-.9-1.8c-.2-.7-.3-1.3-.3-2s.1-1.3.3-1.9c.2-.6.5-1.2,1-1.8.4-.5,1-1,1.6-1.3s1.4-.5,2.3-.5,1.7.2,2.4.5,1.2.8,1.6,1.3c.4.5.7,1.1.9,1.8.2.6.3,1.3.3,1.9s-.1,1.2-.3,1.9c-.2.6-.5,1.2-1,1.8-.4.5-1,1-1.6,1.3s-1.4.5-2.3.5ZM85.9,74.2c.6,0,1-.1,1.4-.4.4-.3.7-.6.9-1,.2-.4.4-.9.5-1.4.1-.5.2-1,.2-1.5s0-1.3-.2-1.9c-.1-.6-.3-1.1-.6-1.5-.3-.4-.6-.8-1-1s-.9-.4-1.5-.4c-.5,0-1,.1-1.4.4s-.7.6-.9,1c-.2.4-.4.9-.5,1.4-.1.5-.2,1-.2,1.5s0,1,.2,1.6.3,1.1.6,1.6c.3.5.6.9,1,1.2.4.3.9.4,1.5.4Z" style="fill:#fff;"/><path d="M100.6,67.8c-.1-.9-.4-1.5-.9-2-.5-.5-1.1-.7-1.8-.7s-1,.1-1.4.4c-.4.2-.8.6-1,1-.3.4-.5.9-.7,1.4-.2.5-.2,1.1-.2,1.7,0,.9.1,1.7.4,2.4.3.7.7,1.2,1.2,1.6.5.4,1.1.6,1.8.6s1.3-.2,1.9-.5c.6-.3,1.1-.8,1.6-1.3l.6.6c-.5.6-1,1.1-1.5,1.5s-1,.6-1.6.7c-.5.1-1,.2-1.4.2-.8,0-1.5-.1-2.1-.4-.6-.3-1.2-.7-1.6-1.1-.5-.5-.8-1-1.1-1.7-.2-.6-.4-1.3-.4-2.1s.1-1.4.3-2,.5-1.3,1-1.8c.4-.5,1-1,1.6-1.3.7-.3,1.4-.5,2.3-.5s.9,0,1.4.2c.5.1.9.3,1.3.6v-.7c0,0,1,0,1,0v3.5h-.8Z" style="fill:#fff;"/><path d="M111.3,67.8c-.1-.9-.4-1.5-.9-2-.5-.5-1.1-.7-1.8-.7s-1,.1-1.4.4c-.4.2-.8.6-1,1-.3.4-.5.9-.7,1.4-.2.5-.2,1.1-.2,1.7,0,.9.1,1.7.4,2.4.3.7.7,1.2,1.2,1.6.5.4,1.1.6,1.8.6s1.3-.2,1.9-.5c.6-.3,1.1-.8,1.6-1.3l.6.6c-.5.6-1,1.1-1.5,1.5s-1,.6-1.6.7c-.5.1-1,.2-1.4.2-.8,0-1.5-.1-2.1-.4-.6-.3-1.2-.7-1.6-1.1-.5-.5-.8-1-1.1-1.7-.2-.6-.4-1.3-.4-2.1s.1-1.4.3-2,.5-1.3,1-1.8c.4-.5,1-1,1.6-1.3.7-.3,1.4-.5,2.3-.5s.9,0,1.4.2c.5.1.9.3,1.3.6v-.7c0,0,1,0,1,0v3.5h-.8Z" style="fill:#fff;"/><path d="M117.6,65.2c-.3,0-.5,0-.6.1-.2,0-.3.2-.3.4,0,.2,0,.4,0,.7v4c0,.6,0,1.1.2,1.6.1.4.3.8.5,1.1.2.3.5.5.8.7.3.2.7.2,1.1.2.6,0,1.1-.1,1.5-.4.4-.3.7-.7.9-1.2.2-.5.3-1.2.3-1.9v-4c0-.2,0-.5,0-.7,0-.2,0-.4,0-.5-.2,0-.4,0-.6,0s-.4,0-.5,0v-1h3.2v.8c-.3,0-.5,0-.6.1s-.3.2-.3.4c0,.2,0,.5,0,.9v3.7c0,.8-.1,1.5-.3,2.1-.2.6-.5,1.1-.8,1.5-.4.4-.8.7-1.3.9-.5.2-1.1.3-1.7.3s-1.5-.1-2.1-.3c-.6-.2-1-.6-1.3-1s-.6-1-.7-1.5c-.1-.6-.2-1.3-.2-2v-3.4c0-.3,0-.5,0-.8,0-.3,0-.5,0-.7-.2,0-.4,0-.6,0-.2,0-.4,0-.5,0v-1h4v.8Z" style="fill:#fff;"/><path d="M125.7,74.1c.3,0,.5,0,.6-.1.2,0,.3-.2.3-.5,0-.2,0-.5,0-.9v-6c0-.2,0-.5,0-.7,0-.2,0-.4,0-.5-.2,0-.4,0-.6,0s-.4,0-.5,0v-1c.6,0,1.3,0,2,0s1.3,0,2,0c.9,0,1.7.1,2.4.3s1.2.6,1.5,1.1c.4.5.5,1.1.5,1.8s0,.8-.2,1.2c-.2.4-.4.8-.8,1.1-.4.3-.8.6-1.4.8s-1.3.3-2.1.3h-.5c-.2,0-.3,0-.4,0v1.6c0,.3,0,.5,0,.8,0,.2,0,.4,0,.5.1,0,.3,0,.4,0,.2,0,.3,0,.5,0,.2,0,.3,0,.4,0v1h-4.2v-.8ZM128.6,70.1c.1,0,.3,0,.4,0,.1,0,.2,0,.4,0,.6,0,1,0,1.4-.3s.7-.5.9-.9c.2-.4.3-.8.3-1.4s0-.9-.2-1.2c-.1-.3-.3-.5-.6-.7-.2-.2-.5-.3-.8-.3s-.6,0-.8,0-.5,0-.6.1c-.1,0-.2.2-.3.4,0,.2,0,.5,0,.8v3.5Z" style="fill:#fff;"/><path d="M133.9,74.9v-.9c.3,0,.5,0,.7-.2.2-.2.3-.4.4-.6.1-.3.2-.6.3-.9l3-8.1h.8l3.3,8.3c0,.2.1.4.2.7,0,.3.2.6.2.8.2,0,.3,0,.5,0,.2,0,.3,0,.4,0v1h-3.8v-.8c.3,0,.5,0,.6-.2s.2-.3.1-.5,0-.4-.2-.6l-.4-1h-3.5c0,0-.3,1.1-.3,1.1,0,.2-.1.4-.2.6,0,.2-.2.4-.2.6.2,0,.4,0,.6,0s.4,0,.5,0v1h-3.1ZM137,70.8h2.8l-.8-2.2c-.1-.3-.2-.7-.3-1-.1-.3-.2-.7-.3-1h0c0,.2-.1.5-.2.8,0,.3-.2.7-.4,1.1l-.8,2.3Z" style="fill:#fff;"/><path d="M151.9,67.7c0-.6,0-1-.2-1.4-.1-.4-.3-.6-.6-.8-.3-.2-.6-.3-1-.3h-.9v7.4c0,.3,0,.5,0,.8,0,.2,0,.4,0,.5.2,0,.4,0,.7,0s.4,0,.6,0v1h-4.1v-.8c.3,0,.5,0,.6-.1.1,0,.3-.2.3-.5,0-.2,0-.5,0-.9v-7.3s-1,0-1,0c-.6,0-1,.2-1.3.6-.3.4-.5,1-.5,1.8h-.8v-3.3h9.1v3.3c0,0-.8,0-.8,0Z" style="fill:#fff;"/><path d="M158.1,65.2c-.3,0-.5,0-.6.1-.2,0-.3.2-.3.4,0,.2,0,.5,0,.9v6c0,.3,0,.5,0,.8,0,.2,0,.4,0,.5.2,0,.4,0,.6,0s.4,0,.5,0v1h-4v-.8c.3,0,.5,0,.6-.1.2,0,.3-.2.3-.5,0-.2,0-.5,0-.9v-6c0-.2,0-.5,0-.7,0-.2,0-.4,0-.5-.2,0-.4,0-.6,0s-.4,0-.5,0v-1h4v.8Z" style="fill:#fff;"/><path d="M164.9,75.1c-1,0-1.8-.2-2.4-.5-.7-.3-1.2-.7-1.6-1.3s-.7-1.1-.9-1.8c-.2-.7-.3-1.3-.3-2s.1-1.3.3-1.9c.2-.6.5-1.2,1-1.8.4-.5,1-1,1.6-1.3s1.4-.5,2.3-.5,1.7.2,2.4.5,1.2.8,1.6,1.3c.4.5.7,1.1.9,1.8.2.6.3,1.3.3,1.9s-.1,1.2-.3,1.9c-.2.6-.5,1.2-1,1.8-.4.5-1,1-1.6,1.3s-1.4.5-2.3.5ZM165,74.2c.6,0,1-.1,1.4-.4.4-.3.7-.6.9-1,.2-.4.4-.9.5-1.4.1-.5.2-1,.2-1.5s0-1.3-.2-1.9c-.1-.6-.3-1.1-.6-1.5-.3-.4-.6-.8-1-1s-.9-.4-1.5-.4c-.5,0-1,.1-1.4.4s-.7.6-.9,1c-.2.4-.4.9-.5,1.4-.1.5-.2,1-.2,1.5s0,1,.2,1.6.3,1.1.6,1.6c.3.5.6.9,1,1.2.4.3.9.4,1.5.4Z" style="fill:#fff;"/><path d="M179.7,75.1l-5.2-6.8c-.1-.2-.2-.3-.4-.5s-.2-.3-.4-.5h0v5.2c0,.3,0,.5,0,.8,0,.2,0,.5,0,.6.2,0,.4,0,.6,0s.4,0,.5,0v1h-3.2v-.8c.3,0,.5,0,.6-.1.1,0,.3-.2.3-.4,0-.2.1-.4.1-.7v-6.2c0-.2,0-.5,0-.7s0-.4,0-.5c-.2,0-.4,0-.6,0s-.4,0-.5,0v-1h2.2l4.9,6.4c.2.3.4.5.5.7s.3.4.4.6h0v-5.5c0-.2,0-.5,0-.7,0-.2,0-.4,0-.5-.2,0-.3,0-.6,0-.2,0-.4,0-.5,0v-1h3.2v.8c-.3,0-.5,0-.6.1-.2,0-.3.2-.3.4,0,.2,0,.5,0,.9v8.4h-1.1Z" style="fill:#fff;"/><path d="M23.9,4.3v-2.3l5.6,2.3h17.3v1.1h-17.6v29c0,.2-.2.5-.6.8s-1,.6-1.7.8c-.7.2-1.4.4-2.2.4h-.8V4.3ZM26.3,17.5h19.9v1.1h-19.9v-1.1ZM26.3,31.3h19.9v1.1h-19.9v-1.1ZM43.7,4.3h-.4l2.5-2.8,4.9,3.9c-.1.2-.3.3-.6.5-.2.1-.6.3-.9.4v28.1c0,.1-.3.3-.8.6-.5.3-1.1.5-1.8.7-.7.2-1.4.3-2.1.3h-.9V4.3Z" style="fill:#fff;"/><path d="M54.6,9.3c1.9,0,3.3.3,4.4.7,1.1.4,1.9,1,2.4,1.6.5.6.7,1.2.7,1.8,0,.6-.2,1.2-.6,1.6-.4.5-.9.7-1.5.8-.6.1-1.3,0-2-.5-.2-.7-.5-1.4-.9-2.1-.4-.7-.8-1.4-1.3-2-.5-.6-1-1.2-1.4-1.7l.3-.2ZM57.6,24.7c.3,0,.5,0,.7,0,.1,0,.3-.3.6-.7.2-.3.3-.5.5-.8.1-.2.3-.6.5-1,.2-.4.5-1,.9-1.8s.9-1.8,1.6-3.1c.6-1.3,1.5-3,2.4-5,1-2,2.2-4.5,3.6-7.4l.5.2c-.4,1.1-.8,2.3-1.2,3.6s-.9,2.7-1.4,4.1-.9,2.7-1.3,4c-.4,1.3-.8,2.4-1.1,3.4-.3,1-.5,1.7-.7,2.2-.2.7-.3,1.4-.5,2.1-.2.7-.2,1.3-.2,1.9,0,.5.1,1,.3,1.5.2.5.4,1,.6,1.4s.4,1,.6,1.7.2,1.4.2,2.3c0,1-.4,1.8-1,2.4s-1.5,1-2.6,1-.9-.1-1.4-.4c-.5-.3-.8-.8-1-1.6.3-1.4.4-2.6.5-3.9,0-1.2,0-2.2-.1-3-.1-.8-.4-1.4-.7-1.6-.3-.2-.6-.3-1-.4s-.8-.2-1.2-.2v-.7h1.9ZM58.2.7c1.9.1,3.5.4,4.6.9,1.1.5,1.9,1.1,2.4,1.7.5.7.7,1.3.7,2,0,.6-.3,1.2-.7,1.6s-1,.7-1.6.8c-.7,0-1.4-.1-2.1-.6-.2-.7-.5-1.5-.8-2.3s-.8-1.5-1.3-2.2c-.5-.7-.9-1.3-1.4-1.8l.3-.2ZM82.9,2.4c-.1.3-.3.5-.7.7-.4.2-.9.2-1.6,0l1.3-.4c-.7,1-1.6,2.1-2.6,3.1-1,1.1-2.2,2.2-3.4,3.3-1.2,1.1-2.5,2.1-3.7,3-1.3.9-2.5,1.7-3.6,2.3v-.5s2.4,0,2.4,0c-.2,1.6-.5,2.8-1,3.6-.5.8-1.1,1.3-1.7,1.5l-1.7-5.8c.8-.2,1.3-.4,1.5-.6.7-.5,1.4-1.2,2.2-2.2s1.5-2.1,2.3-3.4,1.4-2.5,2-3.7c.6-1.2,1-2.3,1.2-3.2l7.2,2.4ZM67.5,13.1c1.1,0,2.7,0,4.7,0s4.3,0,6.9,0c2.6,0,5.2,0,7.9-.1v.5c-1.9.5-4.3,1.2-7.5,2-3.1.8-6.7,1.6-10.8,2.5l-1.3-4.9ZM68.7,18.7l5.1,1.9h9.3l2.4-2.6,4.3,3.3c-.1.2-.3.3-.5.5s-.6.2-1,.3v12.8c0,.1-.4.3-1.1.6-.7.3-1.7.4-3,.4h-.9v-14.3h-9.9v13.6c0,.2-.3.4-1,.7-.7.3-1.6.4-2.9.4h-.8v-17.7ZM85.2,31.8v1.1h-13.3v-1.1h13.3ZM81.3,6.8c2.4.6,4.3,1.3,5.7,2.2,1.4.9,2.4,1.9,3,2.9.6,1,.9,2,.9,2.9,0,.9-.2,1.6-.7,2.2-.5.6-1.1.9-1.8,1-.8,0-1.6-.2-2.4-.9-.2-1.2-.5-2.4-1-3.6-.5-1.2-1.1-2.4-1.8-3.5-.7-1.1-1.4-2.1-2.2-3l.3-.3Z" style="fill:#fff;"/><path d="M122.5,0c.7.5,1.4,1,2,1.5.6.5,1.2.9,1.8,1.4.6.5,1.2,1,1.7,1.4-.1.4-.5.6-1.2.6h-35.2l-.3-1.1h28.2l3-3.9ZM111.4,35c0,.1-.2.3-.5.6-.4.2-.9.5-1.5.7-.7.2-1.4.3-2.3.3h-1V4h5.4v31ZM110.8,11.8c2.8.4,5.1,1,7,1.7,1.9.7,3.4,1.5,4.6,2.4,1.2.9,2,1.8,2.6,2.7.6.9.8,1.8.9,2.6,0,.8-.2,1.5-.5,2-.4.5-.9.9-1.6,1-.7.1-1.5,0-2.4-.4-.6-1.1-1.3-2.1-2.1-3.2-.8-1.1-1.7-2.1-2.7-3.1-1-1-2-2-3-2.9-1-.9-2-1.7-3-2.5l.3-.3Z" style="fill:#fff;"/><path d="M134.1,33.4c0,.2-.2.4-.5.6-.3.3-.8.5-1.4.7-.6.2-1.2.3-1.9.3h-.7V5.7l4.7,2h6.4v1.1h-6.6v24.6ZM141.6,18.4v1.1h-9.6v-1.1h9.6ZM141.6,29.5v1.1h-9.6v-1.1h9.6ZM141.7,1.9c-.2.6-.7.9-1.6.9-.4.5-.9,1.1-1.5,1.8-.6.7-1.1,1.3-1.7,2-.6.7-1.1,1.3-1.5,1.8h-1.3c.1-.7.2-1.5.3-2.5,0-1,.2-1.9.3-3s.1-1.9.2-2.8l6.9,1.7ZM139,7.7l2.2-2.5,4.4,3.5c-.1.2-.3.3-.6.5-.3.1-.6.3-1,.4v22.8c0,.1-.2.3-.7.5-.4.2-1,.4-1.6.6s-1.2.3-1.8.3h-.8V7.7h-.4ZM155.7,2.2c0,.2-.2.4-.5.6-.2.1-.6.2-1,.2-1.2,2.9-2.6,5.6-4.2,7.9-1.6,2.3-3.4,4.3-5.4,5.9l-.4-.3c.7-1.3,1.3-2.9,2-4.7.6-1.8,1.2-3.7,1.8-5.7.5-2,.9-4,1.3-5.9l6.6,1.9ZM147.3,15.4c2,.5,3.5,1.2,4.6,1.9s1.9,1.6,2.3,2.4c.4.8.6,1.6.5,2.3-.1.7-.4,1.3-.9,1.8-.5.4-1.1.7-1.7.7-.7,0-1.4-.3-2.1-.9,0-.9-.2-1.9-.5-2.8-.3-1-.6-1.9-1-2.8-.4-.9-.9-1.7-1.4-2.4l.3-.2ZM160.6,7.6v1.1h-11.7l.5-1.1h11.3ZM157.5,7.6l2.7-2.7,4.4,3.9c-.2.2-.4.3-.6.5-.3.1-.6.2-1.1.3,0,4-.2,7.4-.3,10.3-.1,2.9-.3,5.3-.5,7.3-.2,2-.5,3.5-.9,4.7s-.8,2.1-1.3,2.6c-.7.7-1.5,1.3-2.4,1.6-.9.3-2.1.5-3.4.5,0-.8,0-1.5-.2-2.1-.1-.6-.4-1.1-.7-1.4-.4-.4-.9-.8-1.6-1.1s-1.5-.6-2.5-.8v-.5c.7,0,1.3.1,2,.2.7,0,1.4,0,2,.1.6,0,1.1,0,1.4,0s.6,0,.8-.1c.2,0,.4-.2.6-.4.5-.5.9-1.6,1.1-3.5.3-1.9.5-4.4.6-7.6.1-3.2.3-7.2.3-11.8h-.5Z" style="fill:#fff;"/><path d="M73.1,93.4c-1.8,2.7-4.3,5.1-7.5,7.1-3.2,2-6.8,3.6-10.8,4.9l-.3-.5c1.8-1,3.5-2.2,5.1-3.5,1.6-1.3,3-2.7,4.3-4.2,1.3-1.5,2.3-2.9,3.1-4.4h6v.6ZM86.2,89.6c.6.5,1.2.9,1.7,1.2.5.4,1,.7,1.5,1.2.5.4,1,.8,1.4,1.2,0,.4-.4.6-1.1.6h-34.4l-.3-1.1h28.7l2.5-3.1ZM86.2,88c-.2.2-.5.3-1,.3s-1-.1-1.6-.4c-1.6.2-3.5.5-5.6.7-2.1.2-4.3.4-6.5.5s-4.6.2-6.9.3c-2.3,0-4.6,0-6.8,0v-.6c1.9-.3,4.1-.6,6.3-1s4.5-.9,6.7-1.3c2.2-.5,4.2-1,6.2-1.5,1.9-.5,3.5-1,4.9-1.5l4.4,4.5ZM66.2,118.4c0,.2-.2.4-.6.6-.4.3-.9.5-1.6.7-.6.2-1.3.3-2,.3h-.7v-17.5l5.2,2h15.1v1.1h-15.4v12.8ZM81.6,110.2v1.1h-18.3v-1.1h18.3ZM81.6,116.2v1.1h-18.3v-1.1h18.3ZM75.3,101.9c0,.1-.4.4-1.1.8-.7.4-1.7.6-3,.6h-.9v-15.6l5-.8v15.1ZM75.9,92.8c.7,1,1.7,1.9,2.8,2.7,1.1.8,2.4,1.5,3.8,2.1,1.4.6,2.8,1.1,4.3,1.5,1.5.4,3,.7,4.4.9v.5c-1,.2-1.8.7-2.4,1.5s-1.1,1.8-1.3,3c-1.8-.8-3.5-1.8-5-2.9-1.5-1.1-2.9-2.4-4.1-3.9-1.2-1.5-2.1-3.2-2.9-5.1l.4-.2ZM78.9,104.5l2.3-2.5,4.7,3.5c-.1.2-.3.3-.5.5-.3.2-.6.3-1,.4v12.3c0,.1-.2.2-.7.4-.5.2-1.1.4-1.7.5-.6.2-1.2.2-1.8.2h-.9v-15.4h-.4Z" style="fill:#fff;"/><path d="M91.5,92.3c1.7.3,3.1.6,4,1.2,1,.5,1.6,1.1,2,1.7s.5,1.2.4,1.8c0,.6-.3,1.1-.8,1.5-.4.4-.9.6-1.5.6-.6,0-1.3-.2-1.9-.7,0-.7-.2-1.4-.5-2.1s-.6-1.4-.9-2c-.4-.6-.7-1.2-1.2-1.7l.3-.2ZM93.3,108.1c.3,0,.5,0,.6,0,.1,0,.3-.3.5-.7.2-.3.3-.6.5-.8s.3-.6.6-1.1c.2-.5.6-1.3,1.1-2.3s1.1-2.4,1.9-4.2,1.8-4,3-6.8l.6.2c-.2.8-.5,1.8-.8,2.8-.3,1.1-.6,2.1-.9,3.3-.3,1.1-.6,2.2-.9,3.2-.3,1-.5,1.9-.7,2.7-.2.8-.3,1.4-.4,1.7-.2.6-.3,1.2-.4,1.9s-.1,1.2-.1,1.6c0,.7.2,1.4.5,2s.6,1.3.8,2.1c.3.8.4,1.7.3,2.9,0,1-.4,1.8-1,2.4-.6.6-1.4.9-2.4.9s-.9-.2-1.3-.5-.7-.8-.9-1.5c.3-1.4.4-2.7.5-3.9,0-1.2,0-2.2-.1-3-.1-.8-.3-1.3-.7-1.5-.3-.2-.5-.4-.8-.4-.3,0-.7-.1-1.1-.2v-.7h1.7ZM94.3,83.9c1.8.3,3.2.7,4.2,1.2,1,.6,1.7,1.2,2.1,1.8.4.7.6,1.3.5,1.9s-.3,1.1-.7,1.5c-.4.4-1,.6-1.6.6-.6,0-1.3-.2-2-.7-.1-.7-.3-1.5-.6-2.2-.3-.7-.7-1.5-1.1-2.1-.4-.7-.8-1.3-1.2-1.8l.3-.2ZM106.7,96.7h5.3v.6c-1.2,2.6-2.9,4.9-5.2,6.9-2.3,2-4.9,3.7-8,5.1l-.3-.5c1.9-1.5,3.6-3.4,5-5.6,1.4-2.2,2.5-4.3,3.2-6.6ZM100.8,96.7h20.3l2.5-3.4c.6.5,1.2,1,1.6,1.3.4.4.9.8,1.4,1.2.5.4,1,.8,1.4,1.2,0,.4-.4.6-1.1.6h-25.8l-.3-1.1ZM101.4,90.1h19.4l2.4-3.3c.6.5,1.1.9,1.5,1.3.4.4.9.8,1.4,1.2.5.4.9.8,1.3,1.2-.1.4-.5.6-1,.6h-24.6l-.3-1.1ZM105.2,102.4v-1.9h0c0,0,5.3,1.9,5.3,1.9h-.5v11.6c0,.3.1.6.3.7s.7.2,1.4.2h7c.7,0,1.2,0,1.5,0,.3,0,.6,0,.8-.2.2,0,.4-.2.5-.4.3-.3.5-.8.9-1.6.3-.8.7-1.7,1.1-2.8h.4v4.5c.8.3,1.3.5,1.6.8.2.3.4.7.4,1.1s-.1,1-.4,1.3c-.3.4-.8.7-1.5.9-.7.2-1.7.4-3,.5-1.3.1-2.9.2-4.8.2h-5c-1.5,0-2.7-.1-3.5-.3-.8-.2-1.4-.6-1.8-1.2-.3-.6-.5-1.5-.5-2.6v-12.7ZM106.4,83.9l6,.5c0,.3-.1.5-.3.7-.2.2-.6.3-1.1.4v11.7h-4.6v-13.3ZM108,102.4h9.6v1.1h-9.6v-1.1ZM108,108.1h9.6v1.1h-9.6v-1.1ZM114.9,83.9l6.2.5c0,.3-.1.5-.3.7-.2.2-.6.3-1.1.4v11.7h-4.8v-13.3ZM115.5,102.4h-.3l2-2.1,4.2,3c-.1.1-.3.3-.5.4-.2.1-.5.2-.8.3v6.2c0,0-.2.2-.7.3-.4.1-.9.3-1.5.4-.6.1-1.1.2-1.6.2h-.8v-8.7ZM117.3,96.7c.7,1.1,1.7,2.1,2.8,3,1.2.9,2.5,1.7,3.9,2.3s2.8,1.1,4.3,1.5v.4c-2,.5-3.2,2-3.8,4.6-2-1.2-3.5-2.8-4.7-4.8-1.2-1.9-2.2-4.2-2.9-6.9l.4-.2Z" style="fill:#fff;"/></svg>